<svg width="1400" height="677" viewBox="0 0 1400 677" fill="none" xmlns="http://www.w3.org/2000/svg">
<rect x="893.645" y="-18" width="1" height="651" fill="#B9C1D9"/>
<rect x="1023.15" y="-18" width="1" height="651" fill="#B9C1D9"/>
<rect x="1152" y="-18" width="1" height="651" fill="#B9C1D9"/>
<rect x="1023.64" y="-18" width="1" height="651" fill="#B9C1D9"/>
<rect x="1282" y="-18" width="1" height="651" fill="#B9C1D9"/>
<rect x="1282.15" y="20" width="1" height="651" fill="#B9C1D9"/>
<rect x="1411.64" y="538" width="1" height="1032.5" transform="rotate(90 1411.64 538)" fill="#B9C1D9"/>
<rect x="1411.64" y="408.5" width="1" height="1032.5" transform="rotate(90 1411.64 408.5)" fill="#B9C1D9"/>
<rect x="1411.64" y="279" width="1" height="1032.5" transform="rotate(90 1411.64 279)" fill="#B9C1D9"/>
<rect x="1411.64" y="149.5" width="1" height="1032.5" transform="rotate(90 1411.64 149.5)" fill="#B9C1D9"/>
<rect x="1411.64" y="20" width="1" height="1032.5" transform="rotate(90 1411.64 20)" fill="#B9C1D9"/>
<path d="M419.633 609.449H379.146V666.5C379.146 667.052 379.593 667.5 380.146 667.5H1410.65C1411.2 667.5 1411.65 667.052 1411.65 666.5V300.45L1365.57 349.445C1365.05 349.996 1364.14 349.795 1363.9 349.078L1342.62 285.682C1342.48 285.274 1342.1 285 1341.67 285H1282.95C1282.71 285 1282.48 285.084 1282.3 285.238L1242.11 319.379C1241.83 319.615 1241.45 319.681 1241.11 319.55L1192.25 300.815C1191.72 300.614 1191.14 300.882 1190.95 301.408L1154.07 403.217C1153.82 403.915 1152.92 404.104 1152.41 403.565L1110.35 359.332C1109.9 358.855 1109.11 358.938 1108.77 359.499L1100.53 372.983C1100.24 373.454 1099.62 373.603 1099.15 373.313L1075.64 358.887C1075.18 358.607 1074.59 358.735 1074.29 359.177L1043.72 404.186C1043.49 404.52 1043.09 404.684 1042.69 404.604L1006.43 397.187C1005.94 397.087 1005.45 397.365 1005.28 397.837L967.957 504.702C967.856 504.992 967.626 505.22 967.335 505.319L911.865 524.225C911.435 524.372 910.96 524.21 910.709 523.831L871.08 463.985C870.676 463.374 869.775 463.391 869.393 464.015L851.523 493.251C851.396 493.459 851.196 493.614 850.963 493.686L814.005 505.023C813.717 505.111 813.485 505.323 813.372 505.601L791.712 558.756C791.589 559.057 791.327 559.28 791.01 559.353L741.459 570.753C741.258 570.799 741.076 570.907 740.938 571.06L707.212 608.681C706.835 609.101 706.186 609.126 705.777 608.737L678.725 582.92C678.409 582.618 677.932 582.557 677.549 582.769L599.996 625.87C599.686 626.043 599.308 626.038 599.003 625.858L571.683 609.754C571.365 609.566 570.968 609.57 570.653 609.764L546.223 624.751C546.066 624.848 545.885 624.899 545.7 624.899H495.982C495.746 624.899 495.518 624.816 495.337 624.663L445.978 583.025C445.571 582.682 444.965 582.718 444.602 583.108L420.364 609.131C420.175 609.334 419.91 609.449 419.633 609.449Z" fill="url(#paint0_linear)"/>
<path d="M385.291 609.449H419.197C419.752 609.449 420.283 609.218 420.661 608.812L443.953 583.805C444.68 583.025 445.891 582.952 446.706 583.639L495.058 624.428C495.419 624.732 495.875 624.899 496.347 624.899H545.418C545.787 624.899 546.149 624.797 546.464 624.604L569.853 610.254C570.626 609.78 571.623 609.886 572.279 610.512L598.321 635.365C599.006 636.019 600.055 636.103 600.835 635.567L676.854 583.331C677.634 582.795 678.683 582.88 679.368 583.533L705.031 608.024C705.848 608.804 707.147 608.753 707.901 607.913L740.727 571.296C741.002 570.989 741.366 570.774 741.768 570.682L790.504 559.469C791.138 559.324 791.662 558.878 791.908 558.275L813.193 506.041C813.419 505.485 813.884 505.06 814.458 504.883L850.601 493.797C851.068 493.653 851.466 493.344 851.721 492.928L868.574 465.356C869.337 464.107 871.139 464.074 871.948 465.295L910.283 523.188C910.785 523.946 911.735 524.27 912.595 523.976L966.875 505.476C967.456 505.278 967.915 504.823 968.117 504.242L1004.99 398.662C1005.32 397.717 1006.3 397.162 1007.28 397.362L1042.04 404.47C1042.83 404.632 1043.64 404.302 1044.09 403.634L1073.75 359.967C1074.35 359.083 1075.54 358.827 1076.45 359.386L1098.3 372.79C1099.24 373.368 1100.47 373.071 1101.05 372.128L1108.09 360.612C1108.78 359.489 1110.34 359.323 1111.25 360.277L1151.29 402.393C1152.32 403.471 1154.12 403.094 1154.62 401.696L1190.6 302.366C1190.98 301.314 1192.15 300.779 1193.2 301.179L1240.55 319.338C1241.24 319.6 1242.01 319.468 1242.56 318.995L1282.02 285.476C1282.38 285.169 1282.84 285 1283.32 285H1340.95C1341.81 285 1342.58 285.549 1342.85 286.364L1363.28 347.23C1363.78 348.722 1365.72 349.078 1366.72 347.86L1405.5 300.45" stroke="url(#paint1_linear)" stroke-width="3" stroke-linecap="round"/>
<defs>
<linearGradient id="paint0_linear" x1="895.395" y1="285" x2="895.395" y2="667.5" gradientUnits="userSpaceOnUse">
<stop stop-color="#167EF1" stop-opacity="0.15"/>
<stop offset="1" stop-color="#167EF1" stop-opacity="0"/>
</linearGradient>
<linearGradient id="paint1_linear" x1="1405" y1="315.444" x2="513.009" y2="796.235" gradientUnits="userSpaceOnUse">
<stop stop-color="#167EF1"/>
<stop offset="1" stop-color="white" stop-opacity="0"/>
</linearGradient>
</defs>
</svg>
