<svg width="142" height="117" viewBox="0 0 142 117" fill="none" xmlns="http://www.w3.org/2000/svg">
<path d="M118.736 107.539C117.735 106.872 116.616 106.388 115.558 105.803C114.855 105.46 114.183 105.055 113.552 104.592C112.544 103.761 112.746 102.123 113.811 101.409C115.321 100.394 117.833 100.969 118.092 103.034C118.093 103.055 118.103 103.075 118.119 103.09C118.135 103.105 118.156 103.113 118.177 103.113H120.458C120.471 103.113 120.484 103.11 120.496 103.105C120.507 103.1 120.518 103.092 120.527 103.083C120.535 103.073 120.542 103.062 120.546 103.05C120.55 103.037 120.551 103.024 120.55 103.012C120.427 101.586 119.886 100.4 118.882 99.6412C117.952 98.9247 116.813 98.5337 115.64 98.5283C109.596 98.5283 109.046 104.931 112.297 106.951C112.677 107.185 115.864 108.788 116.992 109.48C118.12 110.173 118.474 111.456 117.984 112.471C117.539 113.401 116.383 114.024 115.226 113.963C113.962 113.897 112.983 113.208 112.639 112.136C112.583 111.899 112.553 111.656 112.55 111.412C112.549 111.389 112.538 111.367 112.521 111.351C112.504 111.335 112.482 111.327 112.459 111.327H109.975C109.951 111.328 109.927 111.338 109.91 111.356C109.893 111.373 109.884 111.397 109.884 111.422C109.884 113.217 110.332 114.21 111.539 115.117C112.597 115.921 113.892 116.348 115.22 116.332C118.597 116.332 120.36 114.416 120.708 112.43C121.055 110.445 120.484 108.696 118.736 107.539Z" fill="#161616"/>
<path d="M11.1626 98.835H8.87203C8.85276 98.8344 8.83384 98.8402 8.81835 98.8517C8.80286 98.8632 8.79171 98.8796 8.78673 98.8982L6.7457 105.604C6.74057 105.623 6.72945 105.639 6.71404 105.651C6.69862 105.663 6.67978 105.669 6.6604 105.669C6.64102 105.669 6.62218 105.663 6.60676 105.651C6.59135 105.639 6.58023 105.623 6.57509 105.604L4.53723 98.8982C4.53116 98.8796 4.5193 98.8635 4.50338 98.8521C4.48746 98.8407 4.46833 98.8347 4.44877 98.835H0.679518C0.655755 98.835 0.632918 98.8442 0.615823 98.8607C0.598728 98.8773 0.58871 98.8998 0.587891 98.9235V116.057C0.587891 116.081 0.597546 116.104 0.614729 116.121C0.631912 116.139 0.655218 116.148 0.679518 116.148H3.16286C3.17475 116.148 3.18652 116.146 3.19746 116.141C3.20841 116.137 3.21831 116.13 3.22656 116.121C3.23482 116.113 3.24127 116.102 3.24552 116.091C3.24978 116.08 3.25175 116.068 3.25133 116.057V103.04C3.253 103.019 3.26167 103 3.27592 102.985C3.29016 102.969 3.30912 102.96 3.3297 102.957C3.35027 102.954 3.37124 102.958 3.38915 102.968C3.40706 102.979 3.42085 102.995 3.42826 103.015L5.48191 109.765L5.62409 110.236C5.63016 110.255 5.64202 110.271 5.65794 110.282C5.67386 110.293 5.693 110.299 5.71255 110.299H7.60824C7.6278 110.299 7.64694 110.293 7.66286 110.282C7.67877 110.271 7.69063 110.255 7.6967 110.236L7.83888 109.765L9.89254 103.015C9.89995 102.995 9.91374 102.979 9.93165 102.968C9.94956 102.958 9.97052 102.954 9.9911 102.957C10.0117 102.96 10.0306 102.969 10.0449 102.985C10.0591 103 10.0678 103.019 10.0695 103.04V116.057C10.069 116.068 10.071 116.08 10.0753 116.091C10.0795 116.102 10.086 116.113 10.0942 116.121C10.1025 116.13 10.1124 116.137 10.1233 116.141C10.1343 116.146 10.146 116.148 10.1579 116.148H12.6413C12.6656 116.148 12.6889 116.139 12.7061 116.121C12.7233 116.104 12.7329 116.081 12.7329 116.057V98.9235C12.7321 98.8998 12.7221 98.8773 12.705 98.8607C12.6879 98.8442 12.665 98.835 12.6413 98.835H11.1626Z" fill="#161616"/>
<path d="M80.7944 98.835C80.7754 98.8353 80.757 98.8416 80.7417 98.853C80.7264 98.8643 80.715 98.8801 80.7091 98.8982L78.6713 105.604C78.6652 105.622 78.6535 105.638 78.6379 105.649C78.6223 105.661 78.6036 105.667 78.5844 105.667C78.5652 105.667 78.5464 105.661 78.5308 105.649C78.5153 105.638 78.5036 105.622 78.4975 105.604L76.4596 98.8982C76.4541 98.8798 76.4429 98.8638 76.4275 98.8523C76.4121 98.8409 76.3935 98.8348 76.3743 98.835H72.6051C72.5813 98.8349 72.5584 98.8442 72.5414 98.8607C72.5243 98.8772 72.5142 98.8997 72.5134 98.9235V116.056C72.5134 116.081 72.5231 116.104 72.5403 116.121C72.5574 116.138 72.5808 116.148 72.6051 116.148H75.0884C75.1122 116.147 75.1347 116.137 75.1512 116.12C75.1677 116.103 75.1769 116.08 75.1769 116.056V103.04C75.1785 103.019 75.1872 103 75.2015 102.985C75.2157 102.969 75.2347 102.96 75.2552 102.957C75.2758 102.954 75.2968 102.958 75.3147 102.968C75.3326 102.979 75.3464 102.995 75.3538 103.015L77.4075 109.765L77.5496 110.236C77.5555 110.254 77.5669 110.27 77.5822 110.281C77.5975 110.292 77.6159 110.299 77.6349 110.299H79.5306C79.5499 110.3 79.5688 110.294 79.5843 110.282C79.5998 110.271 79.611 110.254 79.6159 110.236L79.7613 109.765L81.8118 103.015C81.8192 102.995 81.833 102.979 81.8509 102.968C81.8688 102.958 81.8898 102.954 81.9103 102.957C81.9309 102.96 81.9499 102.969 81.9641 102.985C81.9784 103 81.987 103.019 81.9887 103.04V116.056C81.9887 116.081 81.9984 116.104 82.0155 116.121C82.0327 116.138 82.056 116.148 82.0803 116.148H84.5637C84.5874 116.147 84.6099 116.137 84.6264 116.12C84.6429 116.103 84.6522 116.08 84.6521 116.056V98.9235C84.6514 98.9003 84.6418 98.8782 84.6254 98.8618C84.6089 98.8453 84.5869 98.8358 84.5637 98.835H80.7944Z" fill="#161616"/>
<path d="M48.8364 98.835H37.1463C37.1226 98.8349 37.0997 98.8442 37.0826 98.8607C37.0655 98.8772 37.0555 98.8997 37.0547 98.9235V101.067C37.0555 101.091 37.0655 101.113 37.0826 101.13C37.0997 101.146 37.1226 101.156 37.1463 101.156H41.6738V116.056C41.6738 116.068 41.6762 116.08 41.6808 116.092C41.6854 116.103 41.6922 116.113 41.7007 116.121C41.7092 116.13 41.7193 116.137 41.7304 116.141C41.7415 116.146 41.7534 116.148 41.7655 116.148H44.2488C44.2726 116.147 44.2951 116.137 44.3116 116.12C44.3281 116.103 44.3373 116.08 44.3373 116.056V101.156H48.8364C48.8601 101.156 48.883 101.146 48.9001 101.13C48.9171 101.113 48.9272 101.091 48.928 101.067V98.9235C48.9272 98.8997 48.9171 98.8772 48.9001 98.8607C48.883 98.8442 48.8601 98.8349 48.8364 98.835Z" fill="#161616"/>
<path d="M63.4614 116.148H65.7173C65.7311 116.149 65.7447 116.145 65.7571 116.139C65.7695 116.133 65.7803 116.124 65.7886 116.113C65.7969 116.102 65.8025 116.089 65.8049 116.076C65.8073 116.062 65.8065 116.048 65.8026 116.035L61.1581 98.8447C61.1526 98.8255 61.141 98.8086 61.1251 98.7967C61.1091 98.7847 61.0896 98.7782 61.0697 98.7783H57.8281C57.8081 98.7782 57.7887 98.7847 57.7727 98.7967C57.7567 98.8086 57.7451 98.8255 57.7396 98.8447L53.0794 116.035C53.076 116.048 53.0758 116.062 53.0786 116.076C53.0815 116.089 53.0874 116.102 53.096 116.113C53.1045 116.124 53.1154 116.133 53.1278 116.139C53.1403 116.145 53.154 116.148 53.1678 116.148H55.4237C55.4435 116.148 55.4626 116.14 55.478 116.128C55.4933 116.115 55.5042 116.098 55.509 116.079L56.8644 111.083C56.8693 111.065 56.8803 111.048 56.8958 111.036C56.9112 111.024 56.9302 111.017 56.9497 111.017H61.9354C61.9548 111.018 61.9735 111.024 61.9889 111.036C62.0042 111.048 62.0153 111.065 62.0207 111.083L63.3698 116.076C63.3736 116.097 63.385 116.116 63.4019 116.129C63.4187 116.143 63.4399 116.15 63.4614 116.148ZM57.5405 108.583L59.3541 101.889C59.3602 101.871 59.3719 101.855 59.3875 101.844C59.403 101.833 59.4218 101.827 59.441 101.827C59.4602 101.827 59.4789 101.833 59.4945 101.844C59.5101 101.855 59.5218 101.871 59.5279 101.889L61.3414 108.583C61.3453 108.596 61.3461 108.61 61.3437 108.623C61.3413 108.637 61.3357 108.65 61.3274 108.661C61.3191 108.672 61.3083 108.681 61.296 108.687C61.2836 108.693 61.2699 108.697 61.2561 108.696H57.629C57.6151 108.696 57.6015 108.693 57.589 108.687C57.5766 108.681 57.5657 108.672 57.5571 108.661C57.5486 108.65 57.5427 108.637 57.5398 108.624C57.5369 108.61 57.5372 108.596 57.5405 108.583Z" fill="#161616"/>
<path d="M101.916 116.148H104.168C104.182 116.148 104.196 116.145 104.208 116.139C104.221 116.133 104.232 116.124 104.24 116.113C104.249 116.102 104.255 116.089 104.257 116.076C104.26 116.062 104.26 116.048 104.257 116.035L99.5965 98.8448C99.5915 98.8253 99.58 98.8081 99.5639 98.796C99.5478 98.784 99.5281 98.7777 99.508 98.7784H96.279C96.2591 98.7783 96.2396 98.7847 96.2236 98.7967C96.2077 98.8087 96.1961 98.8256 96.1906 98.8448L91.5335 116.035C91.5302 116.048 91.5299 116.062 91.5326 116.075C91.5353 116.088 91.5409 116.101 91.5491 116.112C91.5573 116.123 91.5678 116.132 91.5798 116.138C91.5919 116.144 91.6052 116.148 91.6188 116.148H93.8747C93.8946 116.148 93.9139 116.141 93.9294 116.129C93.9449 116.116 93.9557 116.098 93.96 116.079L95.3154 111.084C95.3209 111.064 95.3325 111.047 95.3485 111.035C95.3644 111.023 95.3839 111.017 95.4038 111.017H100.386C100.406 111.017 100.425 111.024 100.44 111.036C100.456 111.048 100.467 111.065 100.472 111.084L101.827 116.079C101.832 116.099 101.843 116.116 101.859 116.129C101.875 116.141 101.895 116.148 101.916 116.148ZM95.9947 108.583L97.8082 101.889C97.8143 101.871 97.826 101.855 97.8416 101.844C97.8572 101.833 97.8759 101.827 97.8951 101.827C97.9143 101.827 97.933 101.833 97.9486 101.844C97.9642 101.855 97.9759 101.871 97.982 101.889L99.7955 108.583C99.7989 108.596 99.7991 108.61 99.7962 108.624C99.7934 108.637 99.7874 108.65 99.7789 108.661C99.7704 108.672 99.7595 108.681 99.7471 108.687C99.7346 108.693 99.7209 108.696 99.707 108.696H96.08C96.0661 108.697 96.0525 108.693 96.0401 108.687C96.0277 108.681 96.017 108.672 96.0087 108.661C96.0004 108.65 95.9948 108.637 95.9924 108.624C95.9899 108.61 95.9907 108.596 95.9947 108.583Z" fill="#161616"/>
<path d="M22.758 113.616V108.298C22.7575 108.286 22.7595 108.274 22.7638 108.263C22.7681 108.252 22.7746 108.242 22.7829 108.234C22.7912 108.226 22.8011 108.219 22.8121 108.215C22.823 108.211 22.8347 108.209 22.8464 108.209H29.4434C29.4672 108.208 29.4897 108.198 29.5062 108.181C29.5227 108.164 29.5319 108.141 29.5319 108.118V105.977C29.5319 105.953 29.5227 105.93 29.5062 105.913C29.4897 105.896 29.4672 105.886 29.4434 105.885H22.8464C22.823 105.885 22.8005 105.876 22.7839 105.86C22.7673 105.843 22.758 105.82 22.758 105.797V101.247C22.7576 101.235 22.7595 101.224 22.7638 101.212C22.768 101.201 22.7745 101.191 22.7827 101.183C22.791 101.174 22.8009 101.167 22.8118 101.163C22.8228 101.158 22.8346 101.156 22.8464 101.156H30.3534C30.3771 101.156 30.4 101.146 30.417 101.13C30.4341 101.113 30.4442 101.091 30.445 101.067V98.9235C30.4442 98.8997 30.4341 98.8772 30.417 98.8607C30.4 98.8442 30.3771 98.8349 30.3534 98.835H20.183C20.1595 98.835 20.137 98.8443 20.1205 98.8609C20.1039 98.8775 20.0945 98.9 20.0945 98.9235V116.056C20.0941 116.068 20.0961 116.08 20.1003 116.091C20.1046 116.102 20.111 116.113 20.1193 116.121C20.1276 116.13 20.1375 116.136 20.1484 116.141C20.1593 116.146 20.1711 116.148 20.183 116.148H30.6756C30.6999 116.148 30.7232 116.138 30.7404 116.121C30.7576 116.104 30.7672 116.081 30.7672 116.056V113.796C30.7672 113.772 30.7576 113.748 30.7404 113.731C30.7232 113.714 30.6999 113.704 30.6756 113.704H22.8464C22.8347 113.705 22.823 113.703 22.8121 113.698C22.8011 113.694 22.7912 113.688 22.7829 113.679C22.7746 113.671 22.7681 113.661 22.7638 113.65C22.7595 113.639 22.7575 113.627 22.758 113.616Z" fill="#161616"/>
<path d="M141.383 116.158L132.809 107.29C132.8 107.282 132.794 107.272 132.789 107.261C132.784 107.25 132.782 107.238 132.782 107.227C132.782 107.215 132.784 107.203 132.789 107.192C132.794 107.181 132.8 107.172 132.809 107.163L140.521 99.1676C140.534 99.1552 140.542 99.1393 140.546 99.122C140.549 99.1046 140.547 99.0866 140.541 99.0703C140.534 99.0539 140.522 99.04 140.508 99.0303C140.493 99.0206 140.475 99.0155 140.458 99.0158H137.301C137.289 99.0158 137.277 99.0183 137.265 99.0232C137.254 99.0281 137.244 99.0353 137.235 99.0443L130.689 105.845C130.676 105.858 130.66 105.867 130.642 105.871C130.624 105.875 130.605 105.874 130.588 105.867C130.571 105.86 130.557 105.848 130.546 105.833C130.536 105.818 130.531 105.8 130.531 105.782V99.0885C130.531 99.065 130.521 99.0425 130.505 99.0259C130.488 99.0093 130.466 99 130.442 99H127.959C127.935 99 127.912 99.0092 127.895 99.0257C127.878 99.0422 127.868 99.0648 127.867 99.0885V116.221C127.867 116.246 127.877 116.269 127.894 116.286C127.911 116.304 127.935 116.313 127.959 116.313H130.442C130.454 116.313 130.466 116.311 130.477 116.306C130.488 116.302 130.498 116.295 130.506 116.286C130.514 116.278 130.521 116.267 130.525 116.256C130.529 116.245 130.531 116.233 130.531 116.221V108.681C130.531 108.663 130.537 108.646 130.547 108.632C130.557 108.617 130.571 108.606 130.588 108.599C130.604 108.593 130.622 108.591 130.639 108.594C130.657 108.597 130.673 108.606 130.685 108.618L138.101 116.285C138.117 116.302 138.14 116.312 138.164 116.313H141.323C141.341 116.312 141.357 116.306 141.372 116.296C141.386 116.285 141.396 116.271 141.403 116.255C141.409 116.239 141.411 116.221 141.407 116.204C141.404 116.187 141.395 116.171 141.383 116.158Z" fill="#161616"/>
<path d="M107.84 0.849609L75.8911 24.5683L81.8246 10.5749L107.84 0.849609Z" fill="#E17726" stroke="#E17726" stroke-linecap="round" stroke-linejoin="round"/>
<path d="M34.1606 0.849609L65.8185 24.7928L60.1757 10.5749L34.1606 0.849609Z" fill="#E27625" stroke="#E27625" stroke-linecap="round" stroke-linejoin="round"/>
<path d="M96.3549 55.834L87.856 68.8663L106.042 73.8712L111.239 56.1217L96.3549 55.834Z" fill="#E27625" stroke="#E27625" stroke-linecap="round" stroke-linejoin="round"/>
<path d="M30.7925 56.1217L35.9582 73.8712L54.1441 68.8663L45.6767 55.834L30.7925 56.1217Z" fill="#E27625" stroke="#E27625" stroke-linecap="round" stroke-linejoin="round"/>
<path d="M53.1488 33.8128L48.0811 41.4862L66.109 42.2892L65.4992 22.8672L53.1488 33.8128Z" fill="#E27625" stroke="#E27625" stroke-linecap="round" stroke-linejoin="round"/>
<path d="M88.8513 33.8127L76.3082 22.6426L75.8911 42.2891L93.9191 41.486L88.8513 33.8127Z" fill="#E27625" stroke="#E27625" stroke-linecap="round" stroke-linejoin="round"/>
<path d="M54.1445 68.866L65.0194 63.567L55.6516 56.251L54.1445 68.866Z" fill="#E27625" stroke="#E27625" stroke-linecap="round" stroke-linejoin="round"/>
<path d="M76.981 63.567L87.8559 68.866L86.3488 56.251L76.981 63.567Z" fill="#E27625" stroke="#E27625" stroke-linecap="round" stroke-linejoin="round"/>
<path d="M87.8559 68.8663L76.981 63.5674L77.8467 70.6621L77.7519 73.6468L87.8559 68.8663Z" fill="#D5BFB2" stroke="#D5BFB2" stroke-linecap="round" stroke-linejoin="round"/>
<path d="M54.1445 68.8663L64.2485 73.6468L64.1853 70.6621L65.0194 63.5674L54.1445 68.8663Z" fill="#D5BFB2" stroke="#D5BFB2" stroke-linecap="round" stroke-linejoin="round"/>
<path d="M64.4411 51.562L55.3955 48.8999L61.7776 45.9785L64.4411 51.562Z" fill="#233447" stroke="#233447" stroke-linecap="round" stroke-linejoin="round"/>
<path d="M77.5591 51.562L80.2225 45.9785L86.6362 48.8999L77.5591 51.562Z" fill="#233447" stroke="#233447" stroke-linecap="round" stroke-linejoin="round"/>
<path d="M54.1441 68.8663L55.7144 55.834L45.6768 56.1217L54.1441 68.8663Z" fill="#CC6228" stroke="#CC6228" stroke-linecap="round" stroke-linejoin="round"/>
<path d="M86.2856 55.834L87.8559 68.8663L96.3549 56.1217L86.2856 55.834Z" fill="#CC6228" stroke="#CC6228" stroke-linecap="round" stroke-linejoin="round"/>
<path d="M93.9191 41.4863L75.8911 42.2894L77.5593 51.5625L80.2228 45.979L86.6365 48.9004L93.9191 41.4863Z" fill="#CC6228" stroke="#CC6228" stroke-linecap="round" stroke-linejoin="round"/>
<path d="M55.3952 48.9004L61.7774 45.979L64.4408 51.5625L66.109 42.2894L48.0811 41.4863L55.3952 48.9004Z" fill="#CC6228" stroke="#CC6228" stroke-linecap="round" stroke-linejoin="round"/>
<path d="M48.0811 41.4863L55.6512 56.2512L55.3952 48.9004L48.0811 41.4863Z" fill="#E27525" stroke="#E27525" stroke-linecap="round" stroke-linejoin="round"/>
<path d="M86.6361 48.9004L86.3486 56.2512L93.9187 41.4863L86.6361 48.9004Z" fill="#E27525" stroke="#E27525" stroke-linecap="round" stroke-linejoin="round"/>
<path d="M66.1091 42.2891L64.4409 51.5622L66.5578 62.5078L67.0064 48.097L66.1091 42.2891Z" fill="#E27525" stroke="#E27525" stroke-linecap="round" stroke-linejoin="round"/>
<path d="M75.8906 42.2891L75.0249 48.0654L75.4419 62.5078L77.5588 51.5622L75.8906 42.2891Z" fill="#E27525" stroke="#E27525" stroke-linecap="round" stroke-linejoin="round"/>
<path d="M77.5592 51.5625L75.4424 62.5081L76.981 63.5673L86.3489 56.2512L86.6364 48.9004L77.5592 51.5625Z" fill="#F5841F" stroke="#F5841F" stroke-linecap="round" stroke-linejoin="round"/>
<path d="M55.3955 48.9004L55.6514 56.2512L65.0193 63.5673L66.5579 62.5081L64.4411 51.5625L55.3955 48.9004Z" fill="#F5841F" stroke="#F5841F" stroke-linecap="round" stroke-linejoin="round"/>
<path d="M77.7521 73.7804L77.8469 70.7958L77.0476 70.0908H64.9531L64.1853 70.7958L64.2485 73.7804L54.1445 69L57.6737 71.8866L64.8583 76.8631H77.1423L84.327 71.8866L87.8561 69L77.7521 73.7804Z" fill="#C0AC9D" stroke="#C0AC9D" stroke-linecap="round" stroke-linejoin="round"/>
<path d="M76.9809 63.567L75.4423 62.5078H66.5578L65.0192 63.567L64.1851 70.6617L64.9528 69.9567H77.0473L77.8466 70.6617L76.9809 63.567Z" fill="#161616" stroke="#161616" stroke-linecap="round" stroke-linejoin="round"/>
<path d="M109.185 26.1112L111.88 13.0156L107.84 0.849609L76.981 23.7684L88.8511 33.813L105.625 38.7262L109.315 34.3916L107.71 33.2376L110.275 30.8916L108.32 29.3519L110.885 27.3948L109.185 26.1112Z" fill="#763E1A" stroke="#763E1A" stroke-linecap="round" stroke-linejoin="round"/>
<path d="M30.1196 13.0156L32.8463 26.1112L31.1149 27.3948L33.6804 29.3519L31.7246 30.8916L34.2901 33.2376L32.6851 34.3916L36.3754 38.7262L53.149 33.813L65.0192 23.7684L34.1606 0.849609L30.1196 13.0156Z" fill="#763E1A" stroke="#763E1A" stroke-linecap="round" stroke-linejoin="round"/>
<path d="M105.625 38.7257L88.8509 33.8125L93.9187 41.4858L86.3486 56.2507L96.3547 56.1211H111.239L105.625 38.7257Z" fill="#F5841F" stroke="#F5841F" stroke-linecap="round" stroke-linejoin="round"/>
<path d="M53.1489 33.8125L36.3753 38.7257L30.7925 56.1211H45.6768L55.6512 56.2507L48.0811 41.4858L53.1489 33.8125Z" fill="#F5841F" stroke="#F5841F" stroke-linecap="round" stroke-linejoin="round"/>
<path d="M75.891 42.2888L76.981 23.7678L81.8245 10.5742H60.1758L65.0192 23.7678L66.1093 42.2888L66.5263 48.1283L66.5579 62.5075H75.4423L75.4739 48.1283L75.891 42.2888Z" fill="#F5841F" stroke="#F5841F" stroke-linecap="round" stroke-linejoin="round"/>
</svg>
