<?xml version="1.0" encoding="utf-8"?>
<svg xmlns="http://www.w3.org/2000/svg" xmlns:xlink="http://www.w3.org/1999/xlink">
  <symbol fill="none" viewBox="0 0 24 24" id="arr-down-right">
    <path d="M7 7l10 10M7 17h10V7" stroke-width="2" stroke-linecap="round" stroke-linejoin="round"></path>
  </symbol>
  <symbol fill="none" viewBox="0 0 24 24" id="arr-up-right">
    <path d="M7 17L17 7M7 7h10v10" stroke-width="2" stroke-linecap="round" stroke-linejoin="round"></path>
  </symbol>
  <symbol fill="none" viewBox="0 0 24 24" id="attention">
    <path d="M10.29 3.86L1.82 18a2 2 0 001.71 3h16.94a2 2 0 001.71-3L13.71 3.86a2 2 0 00-3.42 0v0zM12 9v4m0 4h.01" stroke-width="2" stroke-linecap="round" stroke-linejoin="round"></path>
  </symbol>
  <symbol fill="none" viewBox="0 0 24 24" id="calendar">
    <path d="M19 4H5a2 2 0 00-2 2v14a2 2 0 002 2h14a2 2 0 002-2V6a2 2 0 00-2-2zm-3-2v4M8 2v4m-5 4h18"  stroke-width="2" stroke-linecap="round" stroke-linejoin="round"></path>
  </symbol>
  <symbol fill="none" viewBox="0 0 24 24" id="chevron-down">
    <path d="M6 9l6 6 6-6" stroke-width="2" stroke-linecap="round" stroke-linejoin="round"></path>
  </symbol>
  <symbol fill="none" viewBox="0 0 24 24" id="chevron-right">
    <path d="M9 18l6-6-6-6" stroke-width="2" stroke-linecap="round" stroke-linejoin="round"></path>
  </symbol>
  <symbol fill="none" xmlns="http://www.w3.org/2000/svg" viewBox="0 0 24 24" id="chevron-left">
    <path d="M15 18l-6-6 6-6" stroke-width="2" stroke-linecap="round" stroke-linejoin="round"></path>
  </symbol>
  <symbol fill="none" viewBox="0 0 24 24" id="dots">
    <path d="M12 13a1 1 0 100-2 1 1 0 000 2zm7 0a1 1 0 100-2 1 1 0 000 2zM5 13a1 1 0 100-2 1 1 0 000 2z" stroke-width="2" stroke-linecap="round" stroke-linejoin="round"></path>
  </symbol>
  <symbol stroke="none" viewBox="0 0 20 20" id="info">
    <path fill-rule="evenodd" clip-rule="evenodd" d="M.667 10a9.333 9.333 0 1118.666 0A9.333 9.333 0 01.667 10zM10 9a1 1 0 011 1v3.333a1 1 0 11-2 0V10a1 1 0 011-1zm0-3.333a1 1 0 000 2h.008a1 1 0 100-2H10z"></path>
  </symbol>
  <symbol viewBox="0 0 24 24" id="lock">
    <path fill-rule="evenodd" clip-rule="evenodd" d="M3 13c0-1.657 1.209-3 2.7-3h12.6c1.491 0 2.7 1.343 2.7 3v7c0 1.657-1.209 3-2.7 3H5.7C4.209 23 3 21.657 3 20v-7z" stroke="none"></path>
    <path d="M7 11V7a5 5 0 1110 0v4" fill="none" stroke-width="2" stroke-linecap="round" stroke-linejoin="round"></path>
  </symbol>
  <symbol fill="none" viewBox="0 0 24 24" id="plus">
    <path d="M12 5v14m-7-7h14" stroke-width="2" stroke-linecap="round" stroke-linejoin="round"></path>
  </symbol>
  <symbol fill="none" viewBox="0 0 96 96" id="zz">
    <path fill-rule="evenodd" clip-rule="evenodd" d="M55.999 50.477l-1.607-.965-.518-.312-.236.566-.19.456c-.753 1.811-2.252 2.937-3.91 2.937-1.659 0-3.157-1.126-3.911-2.937l-.19-.456-.235-.566-.518.312-1.607.965-.401.242.182.437.19.456c1.228 2.953 3.715 4.788 6.49 4.788 2.774 0 5.261-1.835 6.49-4.789l.19-.455.182-.438-.401-.24zm-17.883-.965l-.518-.312-.236.566-.19.456c-.753 1.811-2.252 2.937-3.91 2.937-1.659 0-3.157-1.126-3.91-2.937l-.19-.456-.236-.566-.518.312-1.607.965-.401.242.182.437.19.456C28 54.565 30.487 56.4 33.262 56.4c2.774 0 5.261-1.835 6.49-4.789l.19-.455.182-.438-.401-.24-1.607-.966zM42 65.4a2.4 2.4 0 100 4.8 2.4 2.4 0 000-4.8zm46.8-29.94v1.74h-7.2v-1.363l4.11-4.697h-4.005V29.4h6.96v1.363l-4.11 4.697H88.8zm-3.601-15.742l.001 3.077-11.999.005-.001-2.41 6.846-8.311-6.674.003-.001-3.077L84.97 9v2.41l-6.846 8.311 7.074-.003z" fill="#8C8C8C"></path>
    <path fill-rule="evenodd" clip-rule="evenodd" d="M71.229 76.469c0 2.74-2.234 4.97-4.98 4.97H17.75c-2.746 0-4.98-2.23-4.98-4.97V30.93c0-2.74 2.234-4.97 4.98-4.97h13.335l7.376 7.362.39.389h27.397a4.98 4.98 0 014.98 4.97V76.47zm2.464-45.216c-2.004-2-4.648-3.102-7.444-3.102H41.118l-7.377-7.363-.389-.388H17.751c-2.796 0-5.44 1.101-7.444 3.101-2.004 2-3.107 4.64-3.107 7.43V76.47c0 2.79 1.103 5.43 3.107 7.43 2.004 2 4.648 3.1 7.444 3.1h48.498c2.796 0 5.44-1.1 7.444-3.1 2.003-2 3.107-4.64 3.107-7.43V38.682c0-2.79-1.104-5.43-3.107-7.43z" fill="#F0F0F0"></path>
  </symbol>
  <symbol fill="none" viewBox="0 0 24 24" id="check">
    <path d="M20 6L9 17l-5-5" stroke-width="2" stroke-linecap="round" stroke-linejoin="round"></path>
  </symbol>
  <symbol fill="none" viewBox="0 0 24 24" id="chevron-top">
    <path d="M6 15l6-6 6 6" stroke-width="2" stroke-linecap="round" stroke-linejoin="round"></path>
  </symbol>
  <symbol fill="none" viewBox="0 0 24 24" id="close">
    <path d="M18 6L6 18M6 6l12 12" stroke-width="2" stroke-linecap="round" stroke-linejoin="round"></path>
  </symbol>
  <symbol fill="none" viewBox="0 0 24 24" id="edit">
    <path d="M16.5 3.5a2.121 2.121 0 113 3L7 19l-4 1 1-4L16.5 3.5z" stroke-width="2" stroke-linecap="round" stroke-linejoin="round"></path>
  </symbol>

  <symbol fill="none" stroke="none" viewBox="0 0 34 32" id="fig-house">
    <path d="M31.506 9.475a4.283 4.283 0 00-1.304-1.393L17.977.572a3.776 3.776 0 00-4 0L1.797 8.081c-.539.36-.988.81-1.303 1.394A3.646 3.646 0 000 11.32v16.86A3.818 3.818 0 003.82 32h24.36A3.818 3.818 0 0032 28.178v-16.86c0-.674-.18-1.303-.494-1.843z" fill="#C2EEE0"></path>
    <path d="M27 16a7 7 0 100-14 7 7 0 000 14z" fill="#13DEA1"></path>
  </symbol>
  <symbol fill="none" stroke="none" viewBox="0 0 34 32" id="fig-left">
    <path d="M2 5a5 5 0 015-5h22a5 5 0 015 5v22a5 5 0 01-5 5H7a5 5 0 01-5-5V5z" fill="#9123FF" fill-opacity=".2"></path>
    <path d="M14 18.999c0-.867.63-1.569 1.407-1.569l6.8-.43c.99 0 1.793.894 1.793 1.999S23.198 21 22.206 21l-6.799-.432c-.777 0-1.407-.702-1.407-1.569z" fill="#9123FF" fill-opacity=".5"></path>
    <path d="M10.45 12.254c.425.239.765.613.953 1.055.12.307.307 1.226.307 1.241.189 1.005.29 2.638.29 4.441 0 1.718-.101 3.284-.255 4.304-.017.017-.205 1.156-.41 1.547A2.145 2.145 0 019.443 26h-.068c-.511-.017-1.584-.46-1.584-.477-1.808-.749-5.371-3.078-6.802-4.627 0 0-.405-.399-.58-.646A2.04 2.04 0 010 19.007c0-.493.154-.95.443-1.327.068-.067.325-.356.562-.595 1.399-1.495 5.046-3.947 6.955-4.693.29-.12 1.024-.376 1.415-.392.375 0 .734.084 1.074.254z" fill="#9123FF"></path>
  </symbol>
  <symbol fill="none" stroke="none" viewBox="0 0 34 32" id="fig-right">
    <path d="M0 5a5 5 0 015-5h22a5 5 0 015 5v22a5 5 0 01-5 5H5a5 5 0 01-5-5V5z" fill="#FFBF43" fill-opacity=".2"></path>
    <path d="M20 12.999c0-.867-.63-1.569-1.407-1.569l-6.8-.43c-.99 0-1.793.894-1.793 1.999S10.803 15 11.794 15l6.799-.432c.777 0 1.407-.702 1.407-1.569z" fill="#FFBF43" fill-opacity=".5"></path>
    <path d="M23.55 6.254a2.217 2.217 0 00-.953 1.055c-.12.307-.307 1.226-.307 1.241-.189 1.005-.29 2.638-.29 4.441 0 1.719.101 3.284.255 4.304.017.017.206 1.156.41 1.547A2.145 2.145 0 0024.557 20h.068c.512-.017 1.584-.46 1.584-.477 1.808-.749 5.372-3.078 6.802-4.627 0 0 .405-.399.58-.646.273-.357.409-.8.409-1.243 0-.493-.154-.95-.443-1.327-.068-.067-.325-.356-.562-.595C31.596 9.59 27.95 7.14 26.04 6.392c-.29-.12-1.024-.376-1.415-.392-.375 0-.734.084-1.074.254z" fill="#FFBF43"></path>
  </symbol>

  <symbol fill="none" viewBox="0 0 20 20" id="decrease">
    <g clip-path="url(#clip0)" stroke-width="2" stroke-linecap="round" stroke-linejoin="round">
      <path d="M19.166 15L11.25 7.083 7.083 11.25.833 5"></path>
      <path d="M14.167 15h5v-5"></path>
    </g>
    <defs>
      <clipPath id="clip0">
        <path fill="#fff" d="M0 0h20v20H0z"></path>
      </clipPath>
    </defs>
  </symbol>
  <symbol fill="none" viewBox="0 0 20 20" id="doc">
    <path d="M10.695 3.056h-4.86a1.389 1.389 0 00-1.39 1.389v11.11a1.39 1.39 0 001.39 1.39h8.333a1.389 1.389 0 001.388-1.39V7.918l-4.86-4.861z" stroke-width="1.5" stroke-linecap="round" stroke-linejoin="round"></path>
    <path d="M10.695 3.056v4.86h4.861" stroke-width="1.5" stroke-linecap="round" stroke-linejoin="round"></path>
  </symbol>
  <symbol fill="none" viewBox="0 0 20 20" id="dollar">
    <g clip-path="url(#clip0)" stroke-width="2" stroke-linecap="round" stroke-linejoin="round">
      <path d="M10 .833v18.334m4.167-15h-6.25a2.917 2.917 0 100 5.833h4.166a2.917 2.917 0 110 5.833H5"></path>
    </g>
    <defs>
      <clipPath id="clip0">
        <path fill="#fff" d="M0 0h20v20H0z"></path>
      </clipPath>
    </defs>
  </symbol>
  <symbol fill="none" viewBox="0 0 20 20" id="logout">
    <path d="M7.5 17.5H4.167A1.667 1.667 0 012.5 15.833V4.167A1.667 1.667 0 014.167 2.5H7.5m5.833 11.667L17.5 10l-4.167-4.167M17.5 10h-10" stroke-width="2" stroke-linecap="round" stroke-linejoin="round"></path>
  </symbol>
  <symbol fill="none" viewBox="0 0 20 20" id="share">
    <path d="M7.5 3.333H3.334A1.667 1.667 0 001.667 5v11.667a1.666 1.666 0 001.667 1.666H15a1.666 1.666 0 001.667-1.666V12.5M10 10l8.333-8.333m-5.833 0h5.833V7.5" stroke="#919399" stroke-width="2" stroke-linecap="round" stroke-linejoin="round"></path>
  </symbol>

  <symbol stroke="none" viewBox="0 0 29 30" id="fb">
    <path d="M14.5.54C6.492.54 0 7.033 0 15.04c0 8.009 6.492 14.5 14.5 14.5S29 23.05 29 15.04C29 7.033 22.508.54 14.5.54zm5.532 7.385h-2.006c-1.572 0-1.877.748-1.877 1.845v2.417h3.75l-.001 3.788H16.15v9.718h-3.912v-9.719h-3.27v-3.787h3.27V9.395c0-3.242 1.98-5.007 4.872-5.007l2.922.005v3.532z"></path>
  </symbol>

  <symbol stroke="none" viewBox="0 0 29 30" id="telegram">
    <path d="M14.5 29.54c8.01 0 14.5-6.49 14.5-14.5S22.51.54 14.5.54 0 7.03 0 15.04s6.49 14.5 14.5 14.5zM6.635 14.727l13.98-5.39c.65-.234 1.216.158 1.006 1.14v-.002l-2.38 11.215c-.176.795-.648.988-1.31.614l-3.624-2.672-1.749 1.684c-.193.194-.356.357-.73.357l.257-3.69 6.718-6.069c.292-.257-.065-.402-.45-.146l-8.303 5.227-3.58-1.116c-.776-.247-.793-.777.165-1.152z"></path>
  </symbol>

  <symbol stroke="none" viewBox="0 0 29 29" id="tw">
    <path fill-rule="evenodd" clip-rule="evenodd" d="M29 14.5C29 22.51 22.51 29 14.5 29S0 22.51 0 14.5 6.49 0 14.5 0 29 6.49 29 14.5zm-8.226-3.654a6.043 6.043 0 001.722-.472 6.09 6.09 0 01-1.495 1.553c.005.129.01.258.01.388 0 3.962-3.017 8.529-8.531 8.529a8.496 8.496 0 01-4.596-1.347 6.02 6.02 0 004.439-1.241 3.003 3.003 0 01-2.802-2.082 3.03 3.03 0 001.354-.051 3 3 0 01-2.405-2.941v-.037c.404.224.867.36 1.358.375a2.997 2.997 0 01-1.333-2.495c0-.551.146-1.066.405-1.507a8.52 8.52 0 006.18 3.13A2.997 2.997 0 0118 8.968a2.99 2.99 0 012.188.946 6.02 6.02 0 001.905-.726c-.224.7-.7 1.287-1.319 1.658z"></path>
  </symbol>

  <symbol fill="none" viewBox="0 0 122 117" id="ptrn-pic-1">
    <path opacity=".6" fill-rule="evenodd" clip-rule="evenodd" d="M56.755 3.174c9.92 2.241 17.085 9.938 25.926 15.146 10.452 6.156 24.725 7.146 30.536 18.113 6.033 11.384 2.215 25.438-.76 38.074-3.196 13.57-5.947 28.86-16.891 36.899-10.902 8.007-25.562 5.509-38.811 4.015-11.939-1.346-24.594-3.349-33.167-12.132-8.092-8.29-7.913-21.324-10.692-32.802-2.554-10.545-6.21-20.64-4.86-31.425C9.615 26.438 11.202 11.756 21.16 4.419c9.945-7.326 23.7-3.933 35.594-1.245z" fill="#fff"></path>
    <path d="M40.562 46.1h.1c0-.274.005-.545.017-.813h0a20.631 20.631 0 013.606-10.909c2.2-3.187 5.248-5.628 8.763-7.02a18.403 18.403 0 0111.013-.81c3.668.864 7.012 2.836 9.617 5.67 2.605 2.834 4.355 6.406 5.033 10.272a20.874 20.874 0 01-1.223 11.47c-1.474 3.615-3.934 6.697-7.071 8.863a18.594 18.594 0 01-10.574 3.32c-5.084-.005-9.96-2.118-13.556-5.875-3.596-3.757-5.62-8.853-5.625-14.168h-.1zm0 0c0-.276.005-.548.017-.818a20.73 20.73 0 013.624-10.96c2.21-3.204 5.274-5.658 8.809-7.057a18.505 18.505 0 0111.073-.814c3.687.869 7.049 2.85 9.667 5.699 2.618 2.849 4.377 6.438 5.057 10.323.681 3.884.254 7.892-1.228 11.525s-3.954 6.73-7.107 8.908c-3.154 2.177-6.85 3.337-10.63 3.337L40.561 46.1zm19.281-20.836h0c-5.185.002-10.166 2.112-13.887 5.882-3.721 3.77-5.892 8.904-6.053 14.314h0a21.5 21.5 0 003.352 12.214c2.192 3.426 5.307 6.098 8.953 7.675a19.162 19.162 0 0011.528 1.186c3.87-.804 7.425-2.79 10.215-5.703 2.79-2.915 4.688-6.627 5.458-10.668.77-4.04.374-8.23-1.135-12.036-1.51-3.807-4.066-7.061-7.346-9.351-3.28-2.29-7.138-3.513-11.085-3.513z" fill="#fff" stroke="#C3C2C2" stroke-width=".2"></path>
    <path d="M76.073 46.1c0 4.51-1.715 8.83-4.761 12.012-3.046 3.182-7.172 4.965-11.469 4.965s-8.423-1.783-11.468-4.965c-3.046-3.182-4.761-7.503-4.761-12.012 0-.539.025-1.069.071-1.594.393-4.351 2.374-8.373 5.526-11.233 3.152-2.858 7.232-4.336 11.393-4.132 4.16.205 8.091 2.075 10.974 5.231 2.883 3.157 4.495 7.357 4.495 11.728z" fill="#fff" stroke="#C3C2C2"></path>
    <g opacity=".5">
      <path d="M1 106.754l19.614-20.496m11.059 10.898l21.055-21.991m10.96 10.602l4.577-4.78m17.887 18.405l27.349-28.57M20.678 85.92L31.186 96.9m21.571-21.52l10.418 10.883m5.359-5.527L86.17 99.16m28.027-29.044L121 77.218" stroke="#D0CECE" stroke-linecap="round" stroke-linejoin="round"></path>
      <path d="M19.559 86.28c0-.242.069-.48.198-.681.129-.202.312-.36.527-.453a1.131 1.131 0 011.281.267 1.275 1.275 0 01.254 1.338c-.088.224-.24.415-.432.55a1.14 1.14 0 01-1.484-.152 1.256 1.256 0 01-.344-.868zM30.31 96.732c0-.243.069-.48.198-.683a1.19 1.19 0 01.527-.452 1.131 1.131 0 011.281.267c.164.171.276.39.321.628a1.28 1.28 0 01-.067.71c-.089.224-.24.415-.432.55a1.14 1.14 0 01-1.484-.152 1.256 1.256 0 01-.344-.868zm21.153-20.978c0-.243.069-.48.198-.683.13-.201.313-.359.528-.452a1.142 1.142 0 011.282.269 1.278 1.278 0 01.252 1.34c-.09.223-.241.415-.435.549a1.14 1.14 0 01-1.482-.156 1.256 1.256 0 01-.343-.867zm10.776 10.228c0-.243.069-.48.198-.682.129-.202.313-.36.527-.453.215-.092.451-.117.68-.07.227.048.437.165.6.337.165.171.277.39.323.628a1.28 1.28 0 01-.067.71c-.09.224-.24.416-.433.55a1.14 1.14 0 01-1.484-.152 1.256 1.256 0 01-.344-.868zm5.095-5.162c0-.242.068-.48.197-.681.13-.202.313-.36.528-.452a1.13 1.13 0 01.679-.07c.228.047.437.164.602.336.164.171.276.39.321.628a1.28 1.28 0 01-.067.71 1.22 1.22 0 01-.432.55 1.14 1.14 0 01-1.484-.152 1.256 1.256 0 01-.344-.868zm17.743 18.045c0-.242.07-.48.198-.682.13-.202.313-.359.528-.452.214-.093.45-.117.678-.07.229.048.438.165.602.336.165.172.276.39.322.629.045.238.022.485-.067.71a1.22 1.22 0 01-.433.55 1.14 1.14 0 01-1.484-.153 1.256 1.256 0 01-.344-.868zm27.928-28.396c0-.243.069-.48.198-.683a1.19 1.19 0 01.527-.452 1.13 1.13 0 01.679-.07c.228.048.438.165.602.336.164.172.276.39.322.629.045.238.022.485-.067.71a1.22 1.22 0 01-.433.55 1.14 1.14 0 01-1.484-.152 1.258 1.258 0 01-.344-.868z" fill="#D0CECE"></path>
    </g>
  </symbol>
  <symbol fill="none" viewBox="0 0 110 117" id="ptrn-pic-2">
    <path opacity=".6" fill-rule="evenodd" clip-rule="evenodd" d="M55.448.003c-11.563.21-19.51 10.9-28.835 17.754C17.345 24.569 4.897 28.95 1.22 39.86c-3.685 10.936 1.678 22.744 6.793 33.087 4.53 9.158 12.9 14.911 20.382 21.86 8.761 8.135 15.11 22.482 27.053 22.188 11.989-.296 16.742-15.992 26.103-23.5 8.698-6.976 22.263-8.558 26.657-18.815 4.463-10.42-.311-22.345-4.516-32.872-3.966-9.927-10.572-18.111-18.644-25.106-8.78-7.608-17.994-16.909-29.6-16.7z" fill="#fff"></path>
    <path d="M53.86 94.99c21.056 0 38.127-2.67 38.127-5.963 0-3.292-17.07-5.961-38.127-5.961-21.057 0-38.128 2.669-38.128 5.961 0 3.293 17.07 5.962 38.127 5.962z" fill="#F2F2F2"></path>
    <path d="M60.049 92.754c21.057 0 38.127-2.67 38.127-5.962 0-3.293-17.07-5.962-38.127-5.962-21.057 0-38.127 2.67-38.127 5.962s17.07 5.962 38.127 5.962z" stroke="#D0CECE" stroke-opacity=".5" stroke-miterlimit="10"></path>
  </symbol>
  <symbol fill="none" viewBox="0 0 128 117" id="ptrn-pic-3">
    <path opacity=".6" fill-rule="evenodd" clip-rule="evenodd" d="M60.801.923c11.055-1.3 22.081-1.825 32.453 2.562 13.03 5.51 30.19 10.58 33.662 25.4 3.507 14.968-12.42 26.495-18.203 40.59-4.897 11.935-3.517 27.626-13.033 35.537-9.554 7.942-22.956 2.873-34.879 4.292-13.954 1.659-29.005 12.961-40.852 4.715C8.166 105.817 9.975 86.542 6.73 71.666 3.792 58.194-3.452 43.996 1.943 31.468c5.32-12.353 19.834-15.056 31.101-20.903C42.036 5.9 50.908 2.087 60.801.923z" fill="#fff"></path>
    <path opacity=".5" d="M70.568 32.795c3.724 0 7.13-3.538 10.772-7.838" stroke="#D0CECE" stroke-linecap="round" stroke-linejoin="round"></path>
    <path opacity=".5" d="M87.846 16.814h-5.248v5.855h5.248v-5.855z" fill="#D0CECE"></path>
  </symbol>
  <symbol fill="none" viewBox="0 0 131 117" id="ptrn-pic-4">
    <path opacity=".6" fill-rule="evenodd" clip-rule="evenodd" d="M60.801.923c11.055-1.3 22.081-1.825 32.453 2.562 13.03 5.51 30.19 10.58 33.662 25.4 3.507 14.968-12.42 26.495-18.203 40.59-4.897 11.935-3.517 27.626-13.033 35.537-9.554 7.942-22.956 2.873-34.879 4.292-13.954 1.659-29.005 12.961-40.852 4.715C8.166 105.817 9.975 86.542 6.73 71.666 3.792 58.194-3.452 43.996 1.943 31.468c5.32-12.353 19.834-15.056 31.101-20.903C42.036 5.9 50.908 2.087 60.801.923z" fill="#fff"></path>
    <path opacity=".5" d="M116.513 47.63c1.258 2.703 4.063 3.698 6.236 3.698 5.248 0 7.251-5.64 7.251-7.547m-13.819-24.633c1.16 2.46 1.734 5.06 1.734 7.333 0 5.382-.805 9.072-1.41 12.3M89.698 15.61c3.553-3.31 7.546-5.769 12.298-5.769 3.905 0 7.075 1.298 9.528 3.277M70.568 32.795c3.724 0 7.13-3.539 10.772-7.838" stroke="#D0CECE" stroke-linecap="round" stroke-linejoin="round"></path>
    <path opacity=".5" d="M87.846 16.814h-5.248v5.855h5.248v-5.855zm26.032 1.447c1.273 0 2.304-1.151 2.304-2.571 0-1.42-1.031-2.572-2.304-2.572s-2.305 1.151-2.305 2.572c0 1.42 1.032 2.571 2.305 2.571zm6.394 25.071l-5.135-3.73-.329 6.827 5.464-3.097z" fill="#D0CECE"></path>
  </symbol>
  <symbol fill="none" viewBox="0 0 121 117" id="ptrn-pic-5">
    <path opacity=".6" fill-rule="evenodd" clip-rule="evenodd" d="M67.545.265C80.995 2.218 85.56 16.52 94.871 24.988c7.023 6.385 16.123 10.83 20.481 18.745 4.796 8.71 6.626 18.264 5.15 27.797-1.729 11.168-4.809 22.726-14.203 30.679-10.208 8.64-24.808 17.242-38.754 14.147C53.4 113.216 53 95.039 41.164 87.751 29.308 80.45 6.236 86.886.885 75.31c-5.233-11.32 14.193-20.155 20.086-31.238 4.934-9.279 3.458-20.593 11.492-28.15C41.538 7.388 54.196-1.674 67.545.265z" fill="#fff"></path>
  </symbol>
  <symbol fill="none" viewBox="0 0 104 118" id="ptrn-pic-6">
    <path opacity=".6" fill-rule="evenodd" clip-rule="evenodd" d="M57.549.266c11.459 1.96 15.347 16.312 23.282 24.809 5.983 6.408 13.736 10.868 17.45 18.81 4.086 8.74 5.644 18.328 4.387 27.894-1.473 11.207-4.097 22.806-12.101 30.785-8.697 8.671-21.137 17.303-33.018 14.197-12.052-3.151-12.393-21.391-22.477-28.705C24.97 80.731 5.313 87.188.754 75.573c-4.458-11.36 12.092-20.224 17.114-31.347 4.203-9.31 2.946-20.664 9.79-28.247C35.39 7.414 46.176-1.68 57.549.266z" fill="#fff"></path>
  </symbol>

  <symbol fill="none" viewBox="0 0 41 37" id="pic-buy">
    <rect x="36.499" y="36.5" width="36" height="36" rx="2.5" transform="rotate(-180 36.499 36.5)" fill="#fff" stroke="#C3C2C2"></rect>
    <path d="M29.352 22.837l10.23-7.736a1 1 0 00-.046-1.627L29.307 6.597a1 1 0 00-1.558.83V22.04a1 1 0 001.603.797z" fill="#FFBF43"></path>
    <rect x="25.899" y="16.65" width="11.1" height="3.7" rx="1" transform="rotate(-180 25.9 16.65)" fill="#FED88E"></rect>
  </symbol>
  <symbol fill="none" viewBox="0 0 62 62" id="pic-clock">
    <path d="M31 61c16.569 0 30-13.431 30-30C61 14.431 47.569 1 31 1 14.431 1 1 14.431 1 31c0 16.569 13.431 30 30 30z" stroke="#C3C2C2" stroke-width="2" stroke-linecap="round" stroke-linejoin="round"></path>
    <path d="M31 57c14.36 0 26-11.64 26-26S45.36 5 31 5 5 16.64 5 31s11.64 26 26 26z" stroke="#C3C2C2" stroke-width="2" stroke-linecap="round" stroke-linejoin="round"></path>
    <path d="M31 13v18l12 6" stroke="#167EF1" stroke-width="2" stroke-linecap="round" stroke-linejoin="round"></path>
    <path fill="#C4C4C4" d="M30 52h2v2h-2zm22-22h2v2h-2zM30 8h2v2h-2zM8 30h2v2H8z"></path>
  </symbol>
  <symbol fill="none" viewBox="0 0 16 26" id="pic-cristal">
    <path d="M7.628 0v9.302L0 12.652 7.628 0zm.558 0v9.302l7.628 3.35L8.186 0zm.186 18.977v6.511L16 14.512l-7.628 4.465zm-.744-9.303L0 13.21l7.628 4.651V9.674zm.558 0l7.628 3.535-7.628 4.651V9.674zm-.558 9.303v6.511L0 14.512l7.628 4.465z" fill="#167EF1"></path>
  </symbol>
  <symbol fill="none" viewBox="0 0 23 19" id="pic-d">
    <path fill-rule="evenodd" clip-rule="evenodd" d="M2.736 12.908V19h9.19c2.031-.069 6.578-1.384 8.52-6.092h2.323V10.48h-2.014c.104-.5.248-1.642 0-2.22h2.014V5.886h-2.323C19.98 4.492 17.296.67 12.959 0H2.788v5.886H0V8.26h2.736v2.22H0v2.427h2.736zM5.06 1.832V5.86h12.598c-.24-.895-2.53-3.466-4.698-3.873-2.169-.406-7.9-.155-7.9-.155zm13.424 8.649H5.06v-2.22h13.424c.248.578.104 1.72 0 2.22zM5.06 16.831h6.867c1.463-.137 4.657-1.115 5.731-3.923H5.06v3.923z" fill="#FFBF43"></path>
  </symbol>
  <symbol fill="none" viewBox="0 0 65 111" id="pic-device">
    <path opacity=".5" d="M43.97 35.368c3.966 0 7.593-3.884 11.471-8.603" stroke="#D0CECE" stroke-linecap="round" stroke-linejoin="round"></path>
    <path opacity=".5" d="M59.117 27.543H54.1v5.596h5.016v-5.596z" fill="#D0CECE"></path>
    <rect x=".5" y=".5" width="64" height="109.882" rx="6.5" fill="#fff" stroke="#C4C2C2"></rect>
    <rect x="2.412" y="2.412" width="60.176" height="106.059" rx="5.5" fill="#fff" stroke="#C4C2C2"></rect>
    <rect x="5.735" y="20.073" width="54.485" height="21.985" rx="3" fill="#F3F3F5"></rect>
    <rect x="7.647" y="78.382" width="49.706" height="13.382" rx="3" fill="#F3F3F5"></rect>
    <rect x="7.897" y="94.882" width="49.206" height="4.279" rx="2.14" stroke="#E7E8EC" stroke-width=".5"></rect>
    <rect x="7.647" y="47.794" width="19.118" height="5.735" rx="2.868" fill="#F3F3F5"></rect>
    <rect x="27.721" y="47.794" width="19.118" height="5.735" rx="2.868" fill="#FFF7E6"></rect>
    <rect x="5.985" y="44.221" width="53.985" height="59.721" rx="2.75" stroke="#D0CECE" stroke-width=".5"></rect>
    <circle cx="9.081" cy="9.081" r="3.346" fill="#167EF1"></circle>
    <circle cx="10.037" cy="58.787" r="2.39" fill="#627EEA"></circle>
    <circle cx="13.86" cy="58.787" r="2.39" fill="#FED385"></circle>
  </symbol>
  <symbol fill="none" viewBox="0 0 67 76" id="pic-form">
    <path opacity=".5" d="M41.568 11.795c3.724 0 7.13-3.539 10.772-7.838" stroke="#D0CECE" stroke-linecap="round" stroke-linejoin="round"></path>
    <rect x=".939" y=".5" width="64.695" height="15.402" rx="2.5" fill="#fff" stroke="#C4C2C2"></rect>
    <rect x=".939" y="20.183" width="64.695" height="15.402" rx="2.5" fill="#fff" stroke="#C4C2C2"></rect>
    <rect x=".939" y="39.865" width="64.695" height="15.402" rx="2.5" fill="#fff" stroke="#C4C2C2"></rect>
    <rect y="58.738" width="65.695" height="16.402" rx="3" fill="#167EF1"></rect>
    <path fill-rule="evenodd" clip-rule="evenodd" d="M6.144 4.325h.666c.184 0 .333-.168.333-.376 0-.207-.15-.376-.333-.376H4.812c-.184 0-.333.169-.333.376 0 .208.15.376.333.376h.666v7.517h-.666c-.184 0-.333.169-.333.376 0 .208.15.376.333.376H6.81c.184 0 .333-.168.333-.376 0-.207-.15-.376-.333-.376h-.666V4.325z" fill="#167EF1"></path>
    <path d="M59.6 44.7h-4.9a.7.7 0 00-.7.7v4.9a.7.7 0 00.7.7h4.9a.7.7 0 00.7-.7v-4.9a.7.7 0 00-.7-.7zm-1.05-.7v1.4m-2.8-1.4v1.4M54 46.8h6.3" stroke="#C3C2C2" stroke-linecap="round" stroke-linejoin="round"></path>
    <path d="M54 27l2.5 2 2.5-2M54 7l2.5 2L59 7" stroke="#C3C2C2"></path>
  </symbol>
  <symbol fill="none" viewBox="0 0 99 69" id="pic-graph">
    <rect x=".5" y=".5" width="98" height="68" rx="3.5" fill="#fff" stroke="#C3C2C2"></rect>
    <path d="M6 49l6.009-7.523 3.004 1.88 9.764-10.155 6.385 2.257 5.257-2.257 5.258 2.257 7.51-12.037 2.63 5.266 5.633-2.633 7.51 3.762 9.014-10.156 5.257 6.394 2.254-2.633h1.877L92 8" stroke="#C3C2C2"></path>
    <circle cx="16" cy="57" r="2" fill="#167EF1"></circle>
    <path d="M6 28h87" stroke="#FFAB00"></path>
    <path d="M6 35h87" stroke="#167EF1"></path>
    <circle cx="8" cy="57" r="2" fill="#FED385"></circle>
  </symbol>
  <symbol fill="none" viewBox="0 0 39 37" id="pic-house">
    <path d="M1 33V13.606a3 3 0 011.336-2.497l14.959-9.972a3 3 0 013.384.038l14.184 9.93a3 3 0 011.28 2.457V33a3 3 0 01-3 3H4a3 3 0 01-3-3z" fill="#fff" stroke="#C3C2C2"></path>
    <circle cx="30.999" cy="11.143" r="7.714" fill="#13DEA1"></circle>
  </symbol>
  <symbol fill="none" viewBox="0 0 78 51" id="pic-process-success">
    <path d="M22.907 13.822a9.54 9.54 0 01-2.787 6.74 9.506 9.506 0 01-13.455 0 9.54 9.54 0 01.49-13.937 9.504 9.504 0 0113.121.617 9.54 9.54 0 012.631 6.58zm50.886 23.453a9.54 9.54 0 01-2.787 6.74 9.506 9.506 0 01-13.455 0 9.54 9.54 0 01.49-13.937 9.504 9.504 0 0113.12.617 9.54 9.54 0 012.632 6.58z" fill="#fff" stroke="#C3C2C2"></path>
    <path d="M29.19 15.339s14.784 2.596 23.003 11.774" stroke="#C3C2C2" stroke-miterlimit="10"></path>
    <ellipse cx="13.392" cy="13.822" rx="12.66" ry="12.681" stroke="#C3C2C2" stroke-miterlimit="10"></ellipse>
    <path d="M9.49 9.408a.505.505 0 00-.357.863l3.546 3.551-3.546 3.551a.509.509 0 000 .715.51.51 0 00.357.148.51.51 0 00.357-.148l3.545-3.551 3.546 3.55a.51.51 0 00.356.149.5.5 0 00.357-.148.509.509 0 000-.715l-3.545-3.55 3.545-3.552a.509.509 0 000-.715.507.507 0 00-.713 0l-3.546 3.551-3.545-3.55a.505.505 0 00-.357-.149z" fill="#FD8369"></path>
    <ellipse cx="64.278" cy="37.275" rx="12.66" ry="12.681" stroke="#C3C2C2" stroke-miterlimit="10"></ellipse>
    <path d="M68.63 34.006a.361.361 0 01.508.51l-6.002 6.002a.32.32 0 01-.38.08.345.345 0 01-.111-.08l-3.197-3.202a.343.343 0 010-.51.349.349 0 01.492 0l2.95 2.956 5.74-5.756z" fill="#167EF1"></path>
    <path d="M49.645 27.318l-.01.2.2.01 2.962.158.214.012-.004-.215-.058-2.972-.004-.2-.2.004-.494.01-.2.003.004.2.044 2.225-2.218-.119-.2-.01-.01.2-.026.494z" fill="#C3C2C2" stroke="#C3C2C2" stroke-width=".4"></path>
  </symbol>
  <symbol fill="none" viewBox="0 0 41 37" id="pic-sell">
    <rect x="4.2" y=".5" width="36" height="36" rx="2.5" fill="#fff" stroke="#C3C2C2"></rect>
    <path d="M11.347 14.162L1.117 21.9a1 1 0 00.046 1.627l10.23 6.877a1 1 0 001.557-.83V14.96a1 1 0 00-1.603-.798z" fill="#9123FF"></path>
    <rect x="14.8" y="20.35" width="11.1" height="3.7" rx="1" fill="#BC7AFE"></rect>
  </symbol>

  <symbol fill="none" viewBox="0 0 107 98" id="ptrn-pic-g-1">
    <path opacity=".6" fill-rule="evenodd" clip-rule="evenodd" d="M56.755 3.174c9.92 2.241 17.085 9.938 25.926 15.146 10.452 6.156 24.725 7.146 30.536 18.113 6.033 11.384 2.215 25.438-.76 38.074-3.196 13.57-5.947 28.86-16.891 36.899-10.902 8.007-25.562 5.509-38.811 4.015-11.939-1.346-24.594-3.349-33.167-12.132-8.092-8.29-7.913-21.324-10.692-32.802-2.554-10.545-6.21-20.64-4.86-31.425C9.615 26.438 11.202 11.756 21.16 4.419c9.945-7.326 23.7-3.933 35.594-1.245z" fill="#fff"></path>
    <path d="M40.562 46.1h.1c0-.274.005-.545.017-.813h0a20.631 20.631 0 013.606-10.909c2.2-3.187 5.248-5.628 8.763-7.02a18.403 18.403 0 0111.013-.81c3.668.864 7.012 2.836 9.617 5.67 2.605 2.834 4.355 6.406 5.033 10.272a20.874 20.874 0 01-1.223 11.47c-1.474 3.615-3.934 6.697-7.071 8.863a18.594 18.594 0 01-10.574 3.32c-5.084-.005-9.96-2.118-13.556-5.875-3.596-3.757-5.62-8.853-5.625-14.168h-.1zm0 0c0-.276.005-.548.017-.818a20.73 20.73 0 013.624-10.96c2.21-3.204 5.274-5.658 8.809-7.057a18.505 18.505 0 0111.073-.814c3.687.869 7.049 2.85 9.667 5.699 2.618 2.849 4.377 6.438 5.057 10.323.681 3.884.254 7.892-1.228 11.525s-3.954 6.73-7.107 8.908c-3.154 2.177-6.85 3.337-10.63 3.337L40.561 46.1zm19.281-20.836h0c-5.185.002-10.166 2.112-13.887 5.882-3.721 3.77-5.892 8.904-6.053 14.314h0a21.5 21.5 0 003.352 12.214c2.192 3.426 5.307 6.098 8.953 7.675a19.162 19.162 0 0011.528 1.186c3.87-.804 7.425-2.79 10.215-5.703 2.79-2.915 4.688-6.627 5.458-10.668.77-4.04.374-8.23-1.135-12.036-1.51-3.807-4.066-7.061-7.346-9.351-3.28-2.29-7.138-3.513-11.085-3.513z" fill="#fff" stroke="#C3C2C2" stroke-width=".2"></path>
    <path d="M76.073 46.1c0 4.51-1.715 8.83-4.761 12.012-3.046 3.182-7.172 4.965-11.469 4.965s-8.423-1.783-11.468-4.965c-3.046-3.182-4.761-7.503-4.761-12.012 0-.539.025-1.069.071-1.594.393-4.351 2.374-8.373 5.526-11.233 3.152-2.858 7.232-4.336 11.393-4.132 4.16.205 8.091 2.075 10.974 5.231 2.883 3.157 4.495 7.357 4.495 11.728z" fill="#fff" stroke="#C3C2C2"></path>
    <g opacity=".5">
      <path d="M1 106.754l19.614-20.496m11.059 10.898l21.055-21.991m10.96 10.602l4.577-4.78m17.887 18.405l27.349-28.57M20.678 85.92L31.186 96.9m21.571-21.52l10.418 10.883m5.359-5.527L86.17 99.16m28.027-29.044L121 77.218" stroke="#D0CECE" stroke-linecap="round" stroke-linejoin="round"></path>
      <path d="M19.559 86.28c0-.242.069-.48.198-.681.129-.202.312-.36.527-.453a1.131 1.131 0 011.281.267 1.275 1.275 0 01.254 1.338c-.088.224-.24.415-.432.55a1.14 1.14 0 01-1.484-.152 1.256 1.256 0 01-.344-.868zM30.31 96.732c0-.243.069-.48.198-.683a1.19 1.19 0 01.527-.452 1.131 1.131 0 011.281.267c.164.171.276.39.321.628a1.28 1.28 0 01-.067.71c-.089.224-.24.415-.432.55a1.14 1.14 0 01-1.484-.152 1.256 1.256 0 01-.344-.868zm21.153-20.978c0-.243.069-.48.198-.683.13-.201.313-.359.528-.452a1.142 1.142 0 011.282.269 1.278 1.278 0 01.252 1.34c-.09.223-.241.415-.435.549a1.14 1.14 0 01-1.482-.156 1.256 1.256 0 01-.343-.867zm10.776 10.228c0-.243.069-.48.198-.682.129-.202.313-.36.527-.453.215-.092.451-.117.68-.07.227.048.437.165.6.337.165.171.277.39.323.628a1.28 1.28 0 01-.067.71c-.09.224-.24.416-.433.55a1.14 1.14 0 01-1.484-.152 1.256 1.256 0 01-.344-.868zm5.095-5.162c0-.242.068-.48.197-.681.13-.202.313-.36.528-.452a1.13 1.13 0 01.679-.07c.228.047.437.164.602.336.164.171.276.39.321.628a1.28 1.28 0 01-.067.71 1.22 1.22 0 01-.432.55 1.14 1.14 0 01-1.484-.152 1.256 1.256 0 01-.344-.868zm17.743 18.045c0-.242.07-.48.198-.682.13-.202.313-.359.528-.452.214-.093.45-.117.678-.07.229.048.438.165.602.336.165.172.276.39.322.629.045.238.022.485-.067.71a1.22 1.22 0 01-.433.55 1.14 1.14 0 01-1.484-.153 1.256 1.256 0 01-.344-.868zm27.928-28.396c0-.243.069-.48.198-.683a1.19 1.19 0 01.527-.452 1.13 1.13 0 01.679-.07c.228.048.438.165.602.336.164.172.276.39.322.629.045.238.022.485-.067.71a1.22 1.22 0 01-.433.55 1.14 1.14 0 01-1.484-.152 1.258 1.258 0 01-.344-.868z" fill="#D0CECE"></path>
    </g>
  </symbol>
  <symbol fill="none" viewBox="0 0 105 98" id="ptrn-pic-g-2">
    <path opacity=".6" fill-rule="evenodd" clip-rule="evenodd" d="M50.105.773C59.215-.315 68.302-.755 76.85 2.92c10.737 4.615 24.879 8.862 27.74 21.276 2.889 12.536-10.235 22.192-15 33.997-4.037 9.998-2.9 23.14-10.741 29.767-7.873 6.652-18.918 2.407-28.743 3.594-11.5 1.39-23.902 10.857-33.665 3.95-9.71-6.87-8.22-23.015-10.894-35.475-2.421-11.285-8.39-23.177-3.945-33.67 4.384-10.347 16.345-12.61 25.63-17.509C34.64 4.941 41.952 1.748 50.105.773z" fill="#DEDEDE"></path>
    <path opacity=".5" d="M58.155 27.47c3.069 0 5.876-2.964 8.877-6.566" stroke="#878484" stroke-linecap="round" stroke-linejoin="round"></path>
    <path opacity=".5" d="M72.394 14.084h-4.325v4.904h4.325v-4.904z" fill="#878484"></path>
  </symbol>
  <symbol fill="none" viewBox="0 0 105 98" id="ptrn-pic-g-3">
    <path opacity=".6" fill-rule="evenodd" clip-rule="evenodd" d="M58.614.222c11.67 1.636 15.631 13.616 23.712 20.708 6.094 5.349 13.99 9.072 17.773 15.7 4.162 7.296 5.75 15.3 4.469 23.284-1.501 9.354-4.173 19.036-12.325 25.697-8.858 7.237-21.528 14.442-33.63 11.85C46.34 94.83 45.993 79.604 35.722 73.5 25.433 67.386 5.41 72.776.768 63.08c-4.541-9.482 12.316-16.882 17.43-26.165 4.281-7.772 3-17.249 9.972-23.578C36.045 6.188 47.03-1.402 58.614.222z" fill="#DEDEDE"></path>
  </symbol>

  <symbol stroke="none" viewBox="0 0 8 6" id="arr-down">
    <path d="M7.286.968L4.012 4.41.69 1.044 0 1.778l4.037 4.076L8 1.676 7.286.968z"></path>
  </symbol>
</svg>