<svg width="174" height="119" viewBox="0 0 174 119" fill="none" xmlns="http://www.w3.org/2000/svg">
<path d="M127 40C127 17.9086 109.091 0 87 0C64.9086 0 47 17.9086 47 40C47 62.0914 64.9086 80 87 80C109.091 80 127 62.0914 127 40Z" fill="url(#paint0_radial)"/>
<path d="M73.4391 28.8327C80.9286 21.4998 93.0716 21.4998 100.561 28.8327L101.462 29.7152C101.837 30.0818 101.837 30.6763 101.462 31.0429L98.379 34.0619C98.1918 34.2452 97.8882 34.2452 97.701 34.0619L96.4606 32.8474C91.2357 27.7318 82.7645 27.7318 77.5396 32.8474L76.2112 34.148C76.024 34.3313 75.7204 34.3313 75.5332 34.148L72.4498 31.1291C72.0753 30.7624 72.0753 30.168 72.4498 29.8013L73.4391 28.8327ZM106.938 35.0761L109.682 37.763C110.057 38.1297 110.057 38.7241 109.682 39.0907L97.3081 51.2062C96.9336 51.5728 96.3265 51.5728 95.952 51.2062C95.952 51.2062 95.952 51.2062 95.952 51.2062L87.1697 42.6075C87.076 42.5158 86.9243 42.5158 86.8306 42.6075H86.8306L78.0485 51.2062C77.674 51.5728 77.0669 51.5728 76.6924 51.2062C76.6924 51.2062 76.6924 51.2062 76.6924 51.2062L64.318 39.0906C63.9435 38.7239 63.9435 38.1295 64.318 37.7629L67.0622 35.076C67.4367 34.7093 68.0439 34.7093 68.4183 35.076L77.2008 43.6748C77.2944 43.7664 77.4462 43.7664 77.5398 43.6748C77.5398 43.6748 77.5398 43.6748 77.5398 43.6748L86.3219 35.076C86.6963 34.7093 87.3035 34.7093 87.678 35.076C87.678 35.076 87.678 35.076 87.678 35.076L96.4605 43.6748C96.5541 43.7664 96.7059 43.7664 96.7995 43.6748L105.582 35.0761C105.956 34.7095 106.563 34.7095 106.938 35.0761Z" fill="white"/>
<path fill-rule="evenodd" clip-rule="evenodd" d="M11.9645 106.134L8.48067 118.682H4.857L0 100.318H3.97969L6.86591 113.617H6.96763L10.4006 100.318H13.6428L17.0758 113.617H17.1775L20.0764 100.318H24.0561L19.1864 118.682H15.5627L12.0789 106.134H11.9645ZM29.3454 116.213C30.9602 116.213 32.2952 115.157 32.2952 113.681V112.688L29.4217 112.866C28.0358 112.968 27.2475 113.591 27.2475 114.559C27.2475 115.577 28.0867 116.213 29.3454 116.213ZM28.1248 118.898C25.531 118.898 23.5603 117.218 23.5603 114.762C23.5603 112.281 25.4674 110.843 28.8623 110.639L32.2952 110.435V109.532C32.2952 108.259 31.4052 107.521 30.0066 107.521C28.6207 107.521 27.7434 108.208 27.5654 109.214H24.1706C24.3104 106.567 26.5609 104.747 30.1719 104.747C33.6684 104.747 35.9443 106.554 35.9443 109.303V118.682H32.3588V116.595H32.2825C31.5196 118.046 29.8286 118.898 28.1248 118.898ZM38.4237 118.682V100.318H42.1364V118.682H38.4237ZM44.7301 118.682V100.318H48.4428V118.682H44.7301ZM57.0634 107.496C55.4359 107.496 54.2661 108.73 54.139 110.435H59.9242C59.8479 108.692 58.7163 107.496 57.0634 107.496ZM59.975 114.508H63.3825C62.9757 117.18 60.5345 118.975 57.1651 118.975C52.9692 118.975 50.4517 116.289 50.4517 111.924C50.4517 107.572 52.9947 104.747 57.0252 104.747C60.9922 104.747 63.497 107.432 63.497 111.581V112.713H54.1008V112.942C54.1008 114.889 55.3342 116.226 57.2286 116.226C58.5891 116.226 59.6317 115.551 59.975 114.508ZM66.3959 101.896H70.1086V105.04H72.6261V107.839H70.1086V114.368C70.1086 115.411 70.6172 115.908 71.7106 115.908C72.0412 115.908 72.3845 115.882 72.6134 115.844V118.58C72.2319 118.669 71.5962 118.733 70.846 118.733C67.6419 118.733 66.3959 117.664 66.3959 115.004V107.839H64.476V105.04H66.3959V101.896ZM83.0902 119C77.7501 119 74.4061 115.424 74.4061 109.494C74.4061 103.576 77.7755 100 83.0902 100C87.5022 100 90.8589 102.8 91.1513 106.91H87.4132C87.0572 104.658 85.328 103.182 83.0902 103.182C80.1913 103.182 78.3223 105.612 78.3223 109.481C78.3223 113.401 80.1659 115.818 83.103 115.818C85.3789 115.818 87.0191 114.482 87.4259 112.306H91.164C90.7318 116.404 87.5912 119 83.0902 119ZM99.4667 118.975C95.3472 118.975 92.7152 116.328 92.7152 111.848C92.7152 107.432 95.3853 104.747 99.4667 104.747C103.548 104.747 106.218 107.419 106.218 111.848C106.218 116.34 103.586 118.975 99.4667 118.975ZM99.4667 116.137C101.285 116.137 102.442 114.597 102.442 111.861C102.442 109.15 101.272 107.585 99.4667 107.585C97.6612 107.585 96.4788 109.15 96.4788 111.861C96.4788 114.597 97.6358 116.137 99.4667 116.137ZM108.125 118.682V105.04H111.711V107.47H111.787C112.512 105.778 113.949 104.785 116.047 104.785C119.073 104.785 120.776 106.694 120.776 109.888V118.682H117.064V110.664C117.064 108.883 116.225 107.865 114.559 107.865C112.893 107.865 111.838 109.086 111.838 110.855V118.682H108.125ZM123.129 118.682V105.04H126.714V107.47H126.791C127.515 105.778 128.952 104.785 131.05 104.785C134.076 104.785 135.78 106.694 135.78 109.888V118.682H132.067V110.664C132.067 108.883 131.228 107.865 129.562 107.865C127.897 107.865 126.841 109.086 126.841 110.855V118.682H123.129ZM144.248 107.496C142.62 107.496 141.451 108.73 141.323 110.435H147.109C147.032 108.692 145.901 107.496 144.248 107.496ZM147.159 114.508H150.567C150.16 117.18 147.719 118.975 144.349 118.975C140.154 118.975 137.636 116.289 137.636 111.924C137.636 107.572 140.179 104.747 144.21 104.747C148.177 104.747 150.681 107.432 150.681 111.581V112.713H141.285V112.942C141.285 114.889 142.519 116.226 144.413 116.226C145.773 116.226 146.816 115.551 147.159 114.508ZM164.973 110.117H161.527C161.311 108.679 160.357 107.661 158.831 107.661C157.001 107.661 155.856 109.214 155.856 111.848C155.856 114.533 157.001 116.06 158.844 116.06C160.332 116.06 161.298 115.169 161.527 113.681H164.985C164.795 116.9 162.392 118.975 158.806 118.975C154.699 118.975 152.093 116.302 152.093 111.848C152.093 107.47 154.699 104.747 158.781 104.747C162.468 104.747 164.807 107.025 164.973 110.117ZM167.77 101.896H171.482V105.04H174V107.839H171.482V114.368C171.482 115.411 171.991 115.908 173.085 115.908C173.415 115.908 173.758 115.882 173.987 115.844V118.58C173.606 118.669 172.97 118.733 172.22 118.733C169.016 118.733 167.77 117.664 167.77 115.004V107.839H165.85V105.04H167.77V101.896Z" fill="#161616"/>
<defs>
<radialGradient id="paint0_radial" cx="0" cy="0" r="1" gradientUnits="userSpaceOnUse" gradientTransform="translate(47 40) scale(80)">
<stop stop-color="#5D9DF6"/>
<stop offset="1" stop-color="#006FFF"/>
</radialGradient>
</defs>
</svg>
