<svg width="347" height="336" viewBox="0 0 347 336" fill="none" xmlns="http://www.w3.org/2000/svg">
<g clip-path="url(#clip0)">
<path fill-rule="evenodd" clip-rule="evenodd" d="M0 0.125854H347V234.609H0V0.125854Z" fill="#F3F3F3"/>
<path d="M196.571 48.8424H237.257" stroke="white" stroke-width="12.98" stroke-linecap="round" stroke-linejoin="round"/>
<path d="M196.571 62.1769H232.799" stroke="white" stroke-width="12.98" stroke-linecap="round" stroke-linejoin="round"/>
<path d="M86.6045 235.117V0.637878" stroke="#DFDFDF" stroke-width="2.93" stroke-linecap="round"/>
<path d="M173.208 235.117V0.637878" stroke="#DFDFDF" stroke-width="2.93" stroke-linecap="round"/>
<path d="M259.812 235.117V0.637878" stroke="#DFDFDF" stroke-width="2.93" stroke-linecap="round"/>
<path fill-rule="evenodd" clip-rule="evenodd" d="M151.657 322.327L152.423 331.344L160.309 331.535L158.846 321.989L151.657 322.327Z" fill="#E49D75"/>
<path fill-rule="evenodd" clip-rule="evenodd" d="M79.7955 306.25L76.1338 318.643L79.8734 322.548L86.5086 311.7L79.7955 306.25Z" fill="#E49D75"/>
<path fill-rule="evenodd" clip-rule="evenodd" d="M151.082 329.317L150.939 336L171.611 335.874C171.754 335.97 171.65 332.598 171.65 332.598L159.349 329.222L151.082 329.317Z" fill="black"/>
<path fill-rule="evenodd" clip-rule="evenodd" d="M75.8527 316.521L71.6543 322.262L80.432 334.724L88.7249 334.781L88.6124 330.572L85.2883 329.096L82.3407 321.767L75.8527 316.521Z" fill="black"/>
<path fill-rule="evenodd" clip-rule="evenodd" d="M158.868 63.6176H199.251V104.103H158.868V63.6176Z" fill="#E0E0E0"/>
<path fill-rule="evenodd" clip-rule="evenodd" d="M158.868 63.6176H199.251V72.6605H158.868V63.6176Z" fill="#A4A4A4"/>
<path fill-rule="evenodd" clip-rule="evenodd" d="M112.417 111.809C114.521 111.345 122.008 111.544 124.012 110.468C126.016 109.392 150.752 90.8115 153.241 88.2818C155.73 85.752 158.807 83.5563 161.032 80.8053C163.257 78.0542 161.105 85.6782 159.162 87.1796C158.937 89.219 158.881 93.4889 158.881 93.4889C158.366 93.3981 157.839 93.4174 157.332 93.5452C156.826 93.6731 156.352 93.9067 155.942 94.2309C154.54 95.333 134.257 119.264 134.257 119.264C134.257 119.264 110.314 112.278 112.417 111.809Z" fill="#E49D75"/>
<path fill-rule="evenodd" clip-rule="evenodd" d="M94.0437 183.302C92.7885 188.075 90.369 221.488 97.8093 238.202C94.5804 250.426 78.1807 307.391 78.1807 307.391L86.3351 314.595L128.371 250.808C128.371 250.808 119.619 181.029 94.0437 183.302Z" fill="#1066C6"/>
<path fill-rule="evenodd" clip-rule="evenodd" d="M136.963 181.237C138.664 185.98 156.046 248.204 156.046 248.204L159.976 323.789L150.982 324.501L123.043 248.391C119.632 244.516 97.9651 192.506 96.9912 185.832C101.25 181.293 135.262 176.49 136.963 181.237Z" fill="#167EF1"/>
<path fill-rule="evenodd" clip-rule="evenodd" d="M105.687 108.793C109.111 108.793 128.501 113.506 132.146 121.099C134.15 125.274 142.94 176.308 138.058 184.331C133.176 192.354 99.5368 192.011 92.9752 185.962C89.2832 182.569 88.0929 108.767 105.687 108.793Z" fill="#FFD98E"/>
<path fill-rule="evenodd" clip-rule="evenodd" d="M0 0.125854H347V31.5159H0V0.125854Z" fill="#E0E0E0"/>
<path d="M16.0791 49.9012H69.9398" stroke="white" stroke-width="12.98" stroke-linecap="round" stroke-linejoin="round"/>
<path fill-rule="evenodd" clip-rule="evenodd" d="M101.394 100.106H108.821V114.556C106.15 116.686 101.394 114.556 101.394 114.556V100.106Z" fill="#E49D75"/>
<path fill-rule="evenodd" clip-rule="evenodd" d="M91.8926 87.0451C91.8926 78.0412 97.9911 70.7426 105.518 70.7426C113.045 70.7426 119.139 78.0412 119.139 87.0451C119.139 96.049 113.04 103.352 105.518 103.352C97.9954 103.352 91.8926 96.049 91.8926 87.0451Z" fill="#E49D75"/>
<path fill-rule="evenodd" clip-rule="evenodd" d="M103.878 68.0609C108.241 67.9611 113.785 70.7425 113.785 72.6735C113.785 76.0147 108.617 83.591 104.77 86.6979C105.847 89.193 106.834 90.8419 106.834 92.9594C106.834 95.077 103.549 103.374 103.549 109.015C103.549 113.441 104.536 116.452 104.536 120.123C104.536 130.151 98.0088 136.222 88.5689 136.222C79.129 136.222 72.7881 125.959 72.7492 117.628C72.7016 107.413 84.0026 94.8774 86.7424 87.1752C89.0493 80.6751 93.4165 68.0609 103.878 68.0609Z" fill="black"/>
<path fill-rule="evenodd" clip-rule="evenodd" d="M100.995 87.8869C100.995 87.2104 101.195 86.5492 101.57 85.9868C101.945 85.4244 102.478 84.9861 103.102 84.7275C103.725 84.4688 104.411 84.4013 105.073 84.5336C105.734 84.6659 106.342 84.992 106.819 85.4706C107.296 85.9493 107.62 86.5589 107.751 87.2225C107.883 87.8861 107.814 88.5737 107.556 89.1984C107.297 89.8232 106.859 90.3569 106.297 90.7321C105.736 91.1073 105.076 91.3071 104.401 91.3062C103.954 91.3062 103.51 91.2178 103.097 91.0459C102.683 90.874 102.308 90.622 101.991 90.3045C101.675 89.9869 101.424 89.6099 101.253 89.1951C101.082 88.7803 100.995 88.3357 100.995 87.8869Z" fill="#E49D75"/>
<path fill-rule="evenodd" clip-rule="evenodd" d="M137.686 136.534C141.512 137.445 157.184 140.079 160.192 139.138C163.201 138.196 194.191 108.568 196.606 106.376C199.021 104.185 203.869 101.082 204.453 97.29C205.037 93.4975 204.453 90.2518 199.199 88.3512C199.298 90.7985 199.393 94.617 199.29 94.0486C198.402 91.0979 198.298 87.7524 196.693 87.7914C195.827 90.5512 197.048 95.7539 194.918 99.2383C192.473 101.903 159.993 123.269 156.583 124.349C152.133 124.349 140.724 120.444 140.724 120.444C140.724 120.444 133.864 135.623 137.686 136.534Z" fill="#E49D75"/>
<path fill-rule="evenodd" clip-rule="evenodd" d="M112.249 121.23C114.898 110.078 138.136 115.975 142.045 119.103C143.412 123.351 141.261 135.953 137.846 138.291C132.717 139.038 109.427 133.093 112.249 121.23Z" fill="#FFE4AD"/>
<path d="M16.0791 73.6412H56.7646" stroke="white" stroke-width="12.98" stroke-linecap="round" stroke-linejoin="round"/>
<path d="M16.0791 114.426H38.1315" stroke="white" stroke-width="12.98" stroke-linecap="round" stroke-linejoin="round"/>
<path d="M16.0791 129.813H56.7646" stroke="white" stroke-width="12.98" stroke-linecap="round" stroke-linejoin="round"/>
<path d="M16.0791 143.147H52.3065" stroke="white" stroke-width="12.98" stroke-linecap="round" stroke-linejoin="round"/>
<path d="M274.762 48.0093H328.622" stroke="white" stroke-width="12.98" stroke-linecap="round" stroke-linejoin="round"/>
<path d="M274.762 62.8018H312.417" stroke="white" stroke-width="12.98" stroke-linecap="round" stroke-linejoin="round"/>
<path d="M274.762 78.5402H325.342" stroke="white" stroke-width="12.98" stroke-linecap="round" stroke-linejoin="round"/>
<path d="M274.762 92.8596H300.255" stroke="white" stroke-width="12.98" stroke-linecap="round" stroke-linejoin="round"/>
<path d="M171.831 81.8771H171.779L169.07 83.3133L168.663 81.7165L172.048 79.9027H173.831V95.4198H171.831V81.8771Z" fill="#A4A4A4"/>
<path d="M189.529 79.92V81.3043L182.786 95.4372H180.622L187.335 81.7078V81.6601H179.765V79.9244L189.529 79.92Z" fill="#A4A4A4"/>
</g>
<defs>
<clipPath id="clip0">
<rect width="347" height="336" fill="white"/>
</clipPath>
</defs>
</svg>
