<svg width="455" height="376" viewBox="0 0 455 376" fill="none" xmlns="http://www.w3.org/2000/svg">
<path d="M323.65 370.195H430.103V164.531H323.65V370.195Z" fill="#F3F3F3"/>
<path d="M430.104 370.195H455V164.531H430.104V370.195Z" fill="#DFDFDF"/>
<path d="M332.236 195.381H421.52V178.242H332.236V195.381Z" fill="#DFDFDF"/>
<path d="M338.676 187.668C340.335 187.668 341.68 186.325 341.68 184.669C341.68 183.012 340.335 181.67 338.676 181.67C337.016 181.67 335.671 183.012 335.671 184.669C335.671 186.325 337.016 187.668 338.676 187.668Z" fill="#F3F3F3"/>
<path d="M390.613 184.241H344.255" stroke="#F3F3F3" stroke-width="4" stroke-linecap="round" stroke-linejoin="round"/>
<path d="M332.236 223.659H421.52V206.521H332.236V223.659Z" fill="#DFDFDF"/>
<path d="M338.676 215.947C340.335 215.947 341.68 214.604 341.68 212.948C341.68 211.291 340.335 209.948 338.676 209.948C337.016 209.948 335.671 211.291 335.671 212.948C335.671 214.604 337.016 215.947 338.676 215.947Z" fill="#F3F3F3"/>
<path d="M390.613 213.376H344.255" stroke="#F3F3F3" stroke-width="4" stroke-linecap="round" stroke-linejoin="round"/>
<path d="M332.236 252.795H421.52V235.656H332.236V252.795Z" fill="#DFDFDF"/>
<path d="M338.676 245.083C340.335 245.083 341.68 243.74 341.68 242.083C341.68 240.427 340.335 239.084 338.676 239.084C337.016 239.084 335.671 240.427 335.671 242.083C335.671 243.74 337.016 245.083 338.676 245.083Z" fill="#F3F3F3"/>
<path d="M390.613 242.512H344.255" stroke="#F3F3F3" stroke-width="4" stroke-linecap="round" stroke-linejoin="round"/>
<path d="M332.236 281.931H421.52V264.792H332.236V281.931Z" fill="#DFDFDF"/>
<path d="M338.676 274.218C340.335 274.218 341.68 272.876 341.68 271.219C341.68 269.563 340.335 268.22 338.676 268.22C337.016 268.22 335.671 269.563 335.671 271.219C335.671 272.876 337.016 274.218 338.676 274.218Z" fill="#F3F3F3"/>
<path d="M390.613 270.791H344.255" stroke="#F3F3F3" stroke-width="4" stroke-linecap="round" stroke-linejoin="round"/>
<path d="M332.236 311.067H421.52V293.928H332.236V311.067Z" fill="#DFDFDF"/>
<path d="M338.676 303.354C340.335 303.354 341.68 302.011 341.68 300.355C341.68 298.698 340.335 297.356 338.676 297.356C337.016 297.356 335.671 298.698 335.671 300.355C335.671 302.011 337.016 303.354 338.676 303.354Z" fill="#F3F3F3"/>
<path d="M390.613 299.926H344.255" stroke="#F3F3F3" stroke-width="4" stroke-linecap="round" stroke-linejoin="round"/>
<path d="M448.992 190.239H435.256" stroke="#F3F3F3" stroke-width="2" stroke-linecap="round" stroke-linejoin="round"/>
<path d="M448.992 193.667H435.256" stroke="#F3F3F3" stroke-width="2" stroke-linecap="round" stroke-linejoin="round"/>
<path d="M448.992 213.376H435.256" stroke="#F3F3F3" stroke-width="2" stroke-linecap="round" stroke-linejoin="round"/>
<path d="M448.992 216.804H435.256" stroke="#F3F3F3" stroke-width="2" stroke-linecap="round" stroke-linejoin="round"/>
<path d="M448.992 242.512H435.256" stroke="#F3F3F3" stroke-width="2" stroke-linecap="round" stroke-linejoin="round"/>
<path d="M448.992 245.94H435.256" stroke="#F3F3F3" stroke-width="2" stroke-linecap="round" stroke-linejoin="round"/>
<path d="M448.992 269.934H435.256" stroke="#F3F3F3" stroke-width="2" stroke-linecap="round" stroke-linejoin="round"/>
<path d="M448.992 273.361H435.256" stroke="#F3F3F3" stroke-width="2" stroke-linecap="round" stroke-linejoin="round"/>
<path d="M190.584 95.1195H1.71582V202.236H190.584V95.1195Z" fill="#F3F3F3"/>
<path d="M112.268 111.401H26.8081C21.011 111.401 16.3115 116.143 16.3115 121.992V178.791C16.3115 184.64 21.011 189.382 26.8081 189.382H112.268C118.065 189.382 122.764 184.64 122.764 178.791V121.992C122.764 116.143 118.065 111.401 112.268 111.401Z" fill="#D0D0D0"/>
<path d="M292.509 211.662C294.304 213.151 307.187 222.951 312.464 229.153C317.359 230.502 338.574 238.597 357.133 241.439C357.075 244.061 355.733 252.795 355.733 252.795C355.733 252.795 311.064 247.232 305.679 245.752C300.294 244.273 279.313 231.509 274.718 226.683C280.843 220.189 292.509 211.662 292.509 211.662Z" fill="#FFD179"/>
<path d="M361.854 254.509C367.307 254.509 371.727 251.248 371.727 247.225C371.727 243.202 367.307 239.941 361.854 239.941C356.402 239.941 351.981 243.202 351.981 247.225C351.981 251.248 356.402 254.509 361.854 254.509Z" fill="#FFD179"/>
<path d="M220.631 278.503V375.336H254.112L237.371 279.551L220.631 278.503Z" fill="#6F6B65"/>
<path d="M276.435 282.462V375.336H249.846L228.359 277.646L276.435 282.462Z" fill="#A8A49E"/>
<path d="M214.159 214.617C212.649 216.253 208.374 221.531 207.245 223.543C204.355 221.029 155.956 176.528 154.822 176.528C154.312 176.535 153.823 176.733 153.451 177.082C153.079 177.431 152.851 177.906 152.811 178.414C152.811 184.311 157.112 184.602 162.453 190.265C173.654 210.37 200.488 246.797 207.492 246.797C211.524 246.797 228.358 230.362 228.358 228.207C228.358 226.052 214.159 214.617 214.159 214.617Z" fill="#FFD179"/>
<path d="M237.91 190.55C226.468 183.746 208.266 208.702 208.618 212.874C208.971 217.047 225.781 229.191 232.802 227.84C237.406 226.938 249.869 197.648 237.91 190.55Z" fill="#1066C6"/>
<path d="M253.141 182.526C286.135 182.526 283.981 276.288 278.134 281.025C270.859 286.921 223.639 281.471 221.018 278.251C218.397 275.03 216.471 182.526 253.141 182.526Z" fill="#167EF1"/>
<path d="M262.7 187.998C262.7 190.69 247.247 191.268 247.247 187.998V169.673H262.7V187.998Z" fill="#FFD179"/>
<path d="M265.324 166.343C269.08 156.86 266.393 146.91 259.322 144.119C252.251 141.329 243.474 146.755 239.718 156.239C235.962 165.722 238.649 175.672 245.72 178.463C252.791 181.253 261.568 175.827 265.324 166.343Z" fill="#FFD179"/>
<path d="M265.914 170.021C267.328 168.051 267.355 165.653 265.975 164.667C264.595 163.68 262.33 164.478 260.916 166.449C259.502 168.42 259.475 170.817 260.856 171.804C262.236 172.79 264.501 171.992 265.914 170.021Z" fill="#FFD179"/>
<path d="M278.153 158.784C278.153 156.222 275.731 153.418 275.274 150.175C275.039 148.543 275.55 141.749 273.623 139.442C269.617 134.679 267.25 135.654 264.187 134.522C258.846 132.595 256.801 129.397 252.393 129.397C247.388 129.397 245.365 131.959 241.78 131.959C237.68 131.959 234.322 130.095 228.57 130.095C225.502 130.095 221.492 134.057 221.492 137.554C221.492 145.819 229.276 144.634 229.276 146.646C229.276 148.042 228.824 149.151 228.824 151.074C228.824 153.579 232.127 155.037 234.014 155.037C239.762 155.037 240.522 154.343 240.522 154.343C241.664 152.09 243.122 150.008 244.853 148.158C245.084 147.917 248.818 150.524 254.914 150.725C259.914 150.891 263.431 151.843 263.431 154.147C263.431 155.77 262.829 160.596 262.865 161.955C262.901 163.315 263.39 164.191 263.698 164.191C264.006 164.191 264.178 163.744 266.096 163.744C268.156 163.744 268.314 166.244 268.672 166.244C270.722 166.289 278.153 164.63 278.153 158.784Z" fill="#A39272"/>
<path d="M268.47 192.24C279.627 185.581 297.38 209.989 297.032 214.065C296.684 218.141 280.314 230.017 273.464 228.699C268.965 227.836 256.813 199.193 268.47 192.24Z" fill="#1066C6"/>
<path d="M163.422 189.382C162.137 190.228 161.057 191.362 160.267 192.697C159.476 194.031 158.995 195.532 158.86 197.084C158.726 198.637 158.94 200.2 159.489 201.655C160.037 203.11 160.904 204.419 162.024 205.482C163.144 206.544 164.487 207.333 165.952 207.788C167.417 208.243 168.964 208.352 170.476 208.107C171.988 207.862 173.426 207.269 174.679 206.373C175.932 205.477 176.968 204.303 177.708 202.938L163.422 189.382Z" fill="#FFD179"/>
<path d="M190.586 0.857002H55.8027V80.5517H190.586V0.857002Z" fill="#F3F3F3"/>
<path d="M47.217 0H0V79.6947H47.217V0Z" fill="#F3F3F3"/>
<path d="M70.3965 69.4116C74.3052 64.72 81.2411 56.7478 93.8576 54.037C112.707 49.9819 118.16 27.9705 127.22 27.9705C138.59 27.9705 143.38 34.4871 148.072 34.4871C157.492 34.4871 167.388 25.7538 172.557 12.8541" stroke="#D0D0D0" stroke-width="3" stroke-linecap="round" stroke-linejoin="round"/>
<path d="M40.3503 12.8541H6.86914V15.4249H40.3503V12.8541Z" fill="#DEDEDE"/>
<path d="M40.3503 23.1373H6.86914V25.7081H40.3503V23.1373Z" fill="#DEDEDE"/>
<path d="M40.3503 33.4202H6.86914V35.991H40.3503V33.4202Z" fill="#DEDEDE"/>
<path d="M40.3503 43.7034H6.86914V46.2742H40.3503V43.7034Z" fill="#DEDEDE"/>
<path d="M40.3503 53.9866H6.86914V56.5574H40.3503V53.9866Z" fill="#DEDEDE"/>
<path d="M40.3503 64.27H6.86914V66.8408H40.3503V64.27Z" fill="#DEDEDE"/>
<path d="M68.6787 122.541H24.0371V125.112H68.6787V122.541Z" fill="white"/>
<path d="M68.6787 132.824H24.0371V135.395H68.6787V132.824Z" fill="white"/>
<path d="M68.6787 143.108H24.0371V145.679H68.6787V143.108Z" fill="white"/>
<path d="M68.6787 153.391H24.0371V155.962H68.6787V153.391Z" fill="white"/>
<path d="M68.6787 163.674H24.0371V166.245H68.6787V163.674Z" fill="white"/>
<path d="M68.6787 173.957H24.0371V176.528H68.6787V173.957Z" fill="white"/>
<path d="M152.612 104.546H98.0683C92.2683 104.546 87.5664 109.321 87.5664 115.212V140.153C87.5664 146.044 92.2683 150.82 98.0683 150.82H152.612C158.412 150.82 163.114 146.044 163.114 140.153V115.212C163.114 109.321 158.412 104.546 152.612 104.546Z" fill="white"/>
<path d="M123.623 113.115C125.046 113.115 126.199 111.964 126.199 110.544C126.199 109.124 125.046 107.973 123.623 107.973C122.201 107.973 121.048 109.124 121.048 110.544C121.048 111.964 122.201 113.115 123.623 113.115Z" fill="#F3F3F3"/>
<path d="M123.623 147.392C125.046 147.392 126.199 146.241 126.199 144.822C126.199 143.402 125.046 142.251 123.623 142.251C122.201 142.251 121.048 143.402 121.048 144.822C121.048 146.241 122.201 147.392 123.623 147.392Z" fill="#F3F3F3"/>
<path d="M123.622 111.401V143.965" stroke="#F3F3F3" stroke-width="3" stroke-linecap="round" stroke-linejoin="round"/>
<path d="M129.633 115.686V134.538" stroke="#F3F3F3" stroke-width="3" stroke-linecap="round" stroke-linejoin="round"/>
<path d="M123.622 144.822L129.632 134.538" stroke="#F3F3F3" stroke-width="3" stroke-linecap="round" stroke-linejoin="round"/>
<path d="M362.556 107.108C359.584 104.195 357.708 100.346 357.245 96.212C356.782 92.0777 357.761 87.9104 360.016 84.4134C362.272 80.9163 365.665 78.3036 369.625 77.0159C373.584 75.7283 377.867 75.8446 381.75 77.3453C384.235 73.5419 387.707 70.4848 391.796 68.5008C395.885 66.5169 400.437 65.6807 404.965 66.0817C409.493 66.4828 413.826 68.106 417.502 70.7777C421.178 73.4495 424.058 77.0692 425.834 81.2499C429.333 79.8361 433.187 79.551 436.856 80.4345C440.525 81.3181 443.826 83.3261 446.296 86.1774C448.766 89.0286 450.282 92.5803 450.631 96.3351C450.98 100.09 450.145 103.86 448.242 107.117L362.556 107.108Z" fill="#DFDFDF"/>
<path d="M438.688 105.403V167.102" stroke="#DFDFDF" stroke-width="4" stroke-miterlimit="10"/>
<path d="M321.075 139.852C324.279 145.99 331.421 148.249 336.953 148.249C350.314 148.249 355.415 135.441 355.415 131.111" stroke="#DFDFDF" stroke-width="4" stroke-linecap="round" stroke-linejoin="round"/>
<path d="M320.217 75.4099C323.087 80.9917 324.509 86.8947 324.509 92.0526C324.509 104.269 322.516 112.644 321.019 119.97" stroke="#DFDFDF" stroke-width="4" stroke-linecap="round" stroke-linejoin="round"/>
<path d="M252.396 66.8406C261.479 59.4673 271.688 53.9866 283.839 53.9866C293.822 53.9866 301.927 56.8781 308.198 61.2898" stroke="#DFDFDF" stroke-width="4" stroke-linecap="round" stroke-linejoin="round"/>
<path d="M204.32 106.26C213.816 106.26 222.503 98.1353 231.792 88.2641" stroke="#DFDFDF" stroke-width="4" stroke-linecap="round" stroke-linejoin="round"/>
<path d="M248.103 69.4115H234.367V83.1225H248.103V69.4115Z" fill="#DFDFDF"/>
<path d="M314.208 72.8391C317.527 72.8391 320.217 70.3453 320.217 67.2691C320.217 64.1928 317.527 61.699 314.208 61.699C310.889 61.699 308.198 64.1928 308.198 67.2691C308.198 70.3453 310.889 72.8391 314.208 72.8391Z" fill="#DFDFDF"/>
<path d="M330.518 130.114L317.611 121.684L316.782 137.109L330.518 130.114Z" fill="#DFDFDF"/>
</svg>
