<svg width="29" height="30" viewBox="0 0 29 30" fill="none" xmlns="http://www.w3.org/2000/svg">
<path d="M14.5 0.540527C6.49185 0.540527 0 7.03237 0 15.0405C0 23.0487 6.49185 29.5405 14.5 29.5405C22.5082 29.5405 29 23.0487 29 15.0405C29 7.03237 22.5082 0.540527 14.5 0.540527ZM20.0318 7.92477L18.0263 7.92566C16.4536 7.92566 16.1495 8.67299 16.1495 9.7695V12.1874H19.8998L19.898 15.9745H16.1498V25.6929H12.2381V15.9745H8.96819V12.1874H12.2381V9.3945C12.2381 6.15333 14.2185 4.38811 17.1096 4.38811L20.0321 4.39256V7.92477H20.0318Z" fill="#B6C5D4"/>
</svg>
