<svg width="34" height="32" viewBox="0 0 34 32" fill="none" xmlns="http://www.w3.org/2000/svg">
<path d="M0 5C0 2.23858 2.23858 0 5 0H27C29.7614 0 32 2.23858 32 5V27C32 29.7614 29.7614 32 27 32H5C2.23858 32 0 29.7614 0 27V5Z" fill="#FFBF43" fill-opacity="0.2"/>
<path d="M20 12.999C20 12.1322 19.3704 11.4305 18.5926 11.4305L11.7937 11C10.8025 11 10 11.8943 10 12.999C10 14.1037 10.8025 15 11.7937 15L18.5926 14.5676C19.3704 14.5676 20 13.8658 20 12.999Z" fill="#FFBF43" fill-opacity="0.5"/>
<path d="M23.5508 6.25417C23.1252 6.49267 22.785 6.86695 22.5966 7.30913C22.4762 7.61552 22.2896 8.53469 22.2896 8.55036C22.1012 9.55484 22 11.1878 22 12.9913C22 14.7095 22.1012 16.2746 22.2547 17.2947C22.2721 17.3121 22.4605 18.4506 22.6646 18.8423C23.0397 19.5578 23.7724 20 24.5573 20L24.6254 20C25.1365 19.9826 26.2093 19.5404 26.2093 19.523C28.0166 18.7744 31.5805 16.4452 33.0109 14.8958C33.0109 14.8958 33.4156 14.4971 33.5901 14.2499C33.8639 13.8931 34 13.4509 34 13.007C34 12.5143 33.8465 12.0565 33.5569 11.6804C33.4889 11.6125 33.2324 11.3236 32.9952 11.0851C31.5962 9.58966 27.9485 7.13852 26.0401 6.39169C25.7505 6.27158 25.0161 6.01567 24.6254 6C24.2503 6 23.891 6.08356 23.5508 6.25417Z" fill="#FFBF43"/>
</svg>
