<svg width="34" height="32" viewBox="0 0 34 32" fill="none" xmlns="http://www.w3.org/2000/svg">
<path d="M2 5C2 2.23858 4.23858 0 7 0H29C31.7614 0 34 2.23858 34 5V27C34 29.7614 31.7614 32 29 32H7C4.23858 32 2 29.7614 2 27V5Z" fill="#9123FF" fill-opacity="0.2"/>
<path d="M14 18.999C14 18.1322 14.6296 17.4305 15.4074 17.4305L22.2063 17C23.1975 17 24 17.8943 24 18.999C24 20.1037 23.1975 21 22.2063 21L15.4074 20.5676C14.6296 20.5676 14 19.8658 14 18.999Z" fill="#9123FF" fill-opacity="0.5"/>
<path d="M10.4492 12.2542C10.8748 12.4927 11.215 12.867 11.4034 13.3091C11.5238 13.6155 11.7104 14.5347 11.7104 14.5504C11.8988 15.5548 12 17.1878 12 18.9913C12 20.7095 11.8988 22.2746 11.7453 23.2947C11.7279 23.3121 11.5395 24.4506 11.3354 24.8423C10.9603 25.5578 10.2276 26 9.44265 26L9.37462 26C8.8635 25.9826 7.79067 25.5404 7.79067 25.523C5.98343 24.7744 2.41954 22.4452 0.989097 20.8958C0.989097 20.8958 0.584386 20.4971 0.409943 20.2499C0.136066 19.8931 -6.67403e-07 19.4509 -6.47999e-07 19.007C-6.26464e-07 18.5143 0.15351 18.0565 0.443088 17.6804C0.51112 17.6125 0.767553 17.3236 1.0048 17.0851C2.40384 15.5897 6.05146 13.1385 7.95988 12.3917C8.24946 12.2716 8.98386 12.0157 9.37462 12C9.74967 12 10.109 12.0836 10.4492 12.2542Z" fill="#9123FF"/>
</svg>
