<svg width="34" height="32" viewBox="0 0 34 32" fill="none" xmlns="http://www.w3.org/2000/svg">
<path d="M31.5056 9.47525C31.191 8.93571 30.7416 8.44118 30.2023 8.0815L17.9775 0.573234C16.7641 -0.191078 15.191 -0.191078 13.9775 0.573234L1.79775 8.0815C1.25843 8.44118 0.808989 8.89076 0.494382 9.47525C0.179775 10.0147 0 10.6442 0 11.3186V28.1784C0 30.2915 1.70787 32 3.82023 32H28.1798C30.2921 32 32 30.2915 32 28.1784V11.3186C32 10.6442 31.8203 10.0147 31.5056 9.47525Z" fill="#C2EEE0"/>
<path d="M27 16C30.866 16 34 12.866 34 9C34 5.134 30.866 2 27 2C23.134 2 20 5.134 20 9C20 12.866 23.134 16 27 16Z" fill="#13DEA1"/>
</svg>
