<svg width="20" height="20" viewBox="0 0 20 20" fill="none" xmlns="http://www.w3.org/2000/svg">
<path fill-rule="evenodd" clip-rule="evenodd" d="M0.666504 9.99984C0.666504 4.84518 4.84518 0.666504 9.99984 0.666504C15.1545 0.666504 19.3332 4.84518 19.3332 9.99984C19.3332 15.1545 15.1545 19.3332 9.99984 19.3332C4.84518 19.3332 0.666504 15.1545 0.666504 9.99984ZM9.99983 8.99988C10.5521 8.99988 10.9998 9.44759 10.9998 9.99988V13.3332C10.9998 13.8855 10.5521 14.3332 9.99983 14.3332C9.44755 14.3332 8.99983 13.8855 8.99983 13.3332V9.99988C8.99983 9.44759 9.44755 8.99988 9.99983 8.99988ZM9.99983 5.6665C9.44755 5.6665 8.99983 6.11422 8.99983 6.6665C8.99983 7.21879 9.44755 7.6665 9.99983 7.6665H10.0082C10.5605 7.6665 11.0082 7.21879 11.0082 6.6665C11.0082 6.11422 10.5605 5.6665 10.0082 5.6665H9.99983Z" fill="#BFC1C7"/>
</svg>
