<svg width="24" height="24" viewBox="0 0 24 24" fill="none" xmlns="http://www.w3.org/2000/svg">
<path fill-rule="evenodd" clip-rule="evenodd" d="M3 13C3 11.3431 4.20883 10 5.7 10H18.3C19.7912 10 21 11.3431 21 13V20C21 21.6569 19.7912 23 18.3 23H5.7C4.20883 23 3 21.6569 3 20V13Z" fill="#BFC1C7"/>
<path d="M7 11V7C7 5.67392 7.52678 4.40215 8.46447 3.46447C9.40215 2.52678 10.6739 2 12 2C13.3261 2 14.5979 2.52678 15.5355 3.46447C16.4732 4.40215 17 5.67392 17 7V11" stroke="#BFC1C7" stroke-width="2" stroke-linecap="round" stroke-linejoin="round"/>
</svg>
