<svg width="78" height="51" viewBox="0 0 78 51" fill="none" xmlns="http://www.w3.org/2000/svg">
<path d="M22.907 13.8221C22.907 16.3502 21.9044 18.7745 20.12 20.5619C18.3356 22.3492 15.9156 23.3532 13.3925 23.3532C10.8693 23.3532 8.44935 22.3492 6.66497 20.5619C4.88055 18.7745 3.87793 16.3502 3.87793 13.8221C3.87793 13.5203 3.8924 13.223 3.91985 12.9285C4.14922 10.4887 5.30785 8.23134 7.15491 6.62496C9.002 5.01857 11.3956 4.18658 13.8388 4.30152C16.282 4.41646 18.5873 5.46952 20.276 7.2423C21.9647 9.01511 22.907 11.3714 22.907 13.8221Z" fill="white" stroke="#C3C2C2"/>
<path d="M73.7927 37.2752C73.7927 39.8033 72.7901 42.2276 71.0057 44.015C69.2213 45.8023 66.8014 46.8063 64.2782 46.8063C61.7551 46.8063 59.3351 45.8023 57.5507 44.015C55.7663 42.2276 54.7637 39.8033 54.7637 37.2752C54.7637 36.9734 54.7781 36.6761 54.8056 36.3816C55.035 33.9418 56.1936 31.6845 58.0407 30.0781C59.8877 28.4717 62.2814 27.6397 64.7246 27.7546C67.1677 27.8696 69.473 28.9226 71.1617 30.6954C72.8504 32.4682 73.7927 34.8246 73.7927 37.2752Z" fill="white" stroke="#C3C2C2"/>
<path d="M29.1905 15.3387C29.1905 15.3387 43.9737 17.9352 52.1925 27.1128" stroke="#C3C2C2" stroke-miterlimit="10"/>
<ellipse cx="13.3924" cy="13.822" rx="12.66" ry="12.6809" stroke="#C3C2C2" stroke-miterlimit="10"/>
<path d="M9.49025 9.4082C9.36164 9.4082 9.23129 9.45824 9.13341 9.55628C8.93795 9.75206 8.93795 10.0754 9.13341 10.271L12.6786 13.8221L9.13341 17.3731C8.93795 17.5689 8.93795 17.8922 9.13341 18.0878C9.22808 18.1827 9.36033 18.2359 9.49025 18.2359C9.62016 18.2359 9.75227 18.1828 9.84708 18.0878L13.3923 14.5369L16.9375 18.0878C17.0322 18.1827 17.1644 18.2359 17.2943 18.2359C17.4221 18.2359 17.5502 18.1889 17.6512 18.0878C17.8466 17.892 17.8466 17.5688 17.6512 17.3731L14.1061 13.8221L17.6512 10.271C17.8466 10.0752 17.8466 9.75192 17.6512 9.55628C17.4557 9.36064 17.1329 9.3605 16.9376 9.55628L13.3924 13.1073L9.84723 9.55628C9.7495 9.45839 9.61914 9.4082 9.49039 9.4082H9.49025Z" fill="#FD8369"/>
<ellipse cx="64.2781" cy="37.2753" rx="12.66" ry="12.6809" stroke="#C3C2C2" stroke-miterlimit="10"/>
<path d="M68.6295 34.0056C68.6989 33.948 68.7872 33.9183 68.8771 33.9225C68.9671 33.9267 69.0523 33.9644 69.116 34.0282C69.1797 34.092 69.2173 34.1773 69.2215 34.2674C69.2257 34.3576 69.1961 34.446 69.1385 34.5154L63.1364 40.5176C63.1059 40.5528 63.0681 40.5809 63.0256 40.6C62.9832 40.6192 62.9371 40.6289 62.8905 40.6284C62.8442 40.6275 62.7986 40.6172 62.7563 40.5981C62.7141 40.5791 62.6761 40.5517 62.6446 40.5176L59.4481 37.3158C59.4124 37.2837 59.3838 37.2444 59.3642 37.2005C59.3446 37.1565 59.3345 37.109 59.3345 37.0609C59.3345 37.0128 59.3446 36.9652 59.3642 36.9213C59.3838 36.8774 59.4124 36.8381 59.4481 36.806C59.5135 36.741 59.6019 36.7045 59.694 36.7045C59.7861 36.7045 59.8745 36.741 59.9399 36.806L62.8905 39.7615L68.6295 34.0056Z" fill="#167EF1"/>
<path d="M49.6449 27.3179L49.6344 27.5176L49.8341 27.5283L52.7965 27.6864L53.0111 27.6979L53.0069 27.4829L52.9489 24.5114L52.945 24.3114L52.7451 24.3152L52.2508 24.3245L52.0508 24.3283L52.0548 24.5283L52.0986 26.753L49.881 26.6341L49.6812 26.6234L49.6708 26.8233L49.6449 27.3179Z" fill="#C3C2C2" stroke="#C3C2C2" stroke-width="0.4"/>
</svg>
