<svg width="65" height="111" viewBox="0 0 65 111" fill="none" xmlns="http://www.w3.org/2000/svg">
<path opacity="0.5" d="M43.9707 35.3676C47.9356 35.3676 51.5627 31.4836 55.4413 26.7646" stroke="#D0CECE" stroke-linecap="round" stroke-linejoin="round"/>
<path opacity="0.5" d="M59.1167 27.5432H54.1006V33.1394H59.1167V27.5432Z" fill="#D0CECE"/>
<rect x="0.5" y="0.5" width="64" height="109.882" rx="6.5" fill="white" stroke="#C4C2C2"/>
<rect x="2.41162" y="2.41174" width="60.1765" height="106.059" rx="5.5" fill="white" stroke="#C4C2C2"/>
<rect x="5.73535" y="20.0735" width="54.4853" height="21.9853" rx="3" fill="#F3F3F5"/>
<rect x="7.64697" y="78.3823" width="49.7059" height="13.3824" rx="3" fill="#F3F3F5"/>
<rect x="7.89697" y="94.8823" width="49.2059" height="4.27941" rx="2.13971" stroke="#E7E8EC" stroke-width="0.5"/>
<rect x="7.64697" y="47.7941" width="19.1176" height="5.73529" rx="2.86765" fill="#F3F3F5"/>
<rect x="27.7207" y="47.7941" width="19.1176" height="5.73529" rx="2.86765" fill="#FFF7E6"/>
<rect x="5.98535" y="44.2206" width="53.9853" height="59.7206" rx="2.75" stroke="#D0CECE" stroke-width="0.5"/>
<circle cx="9.08094" cy="9.08094" r="3.34559" fill="#167EF1"/>
<circle cx="10.0367" cy="58.7868" r="2.38971" fill="#627EEA"/>
<circle cx="13.8604" cy="58.7868" r="2.38971" fill="#FED385"/>
</svg>
