<svg width="23" height="19" viewBox="0 0 23 19" fill="none" xmlns="http://www.w3.org/2000/svg">
<path fill-rule="evenodd" clip-rule="evenodd" d="M2.73641 12.9076V19H11.9266C13.9574 18.9312 18.5043 17.6163 20.4456 12.9076H22.769V10.481H20.7554C20.8587 9.98192 21.0033 8.83917 20.7554 8.26089H22.769V5.88589H20.4456C19.981 4.49186 17.2962 0.671196 12.9592 0H2.78804V5.88589H0V8.26089H2.73641V10.481H0V12.9076H2.73641ZM5.0594 1.83238V5.85955H17.6572C17.4163 4.96462 15.1273 2.39391 12.9589 1.98725C10.7904 1.58059 5.0594 1.83238 5.0594 1.83238ZM18.4833 10.481H5.0594V8.26087H18.4833C18.7311 8.83913 18.5866 9.98188 18.4833 10.481ZM5.0594 16.8315H11.9262C13.3891 16.6939 16.5833 15.7163 17.6572 12.9076H5.0594V16.8315Z" fill="#FFBF43"/>
</svg>
