<svg width="62" height="62" viewBox="0 0 62 62" fill="none" xmlns="http://www.w3.org/2000/svg">
<path d="M31 61C47.5685 61 61 47.5685 61 31C61 14.4315 47.5685 1 31 1C14.4315 1 1 14.4315 1 31C1 47.5685 14.4315 61 31 61Z" stroke="#C3C2C2" stroke-width="2" stroke-linecap="round" stroke-linejoin="round"/>
<path d="M31 57C45.3594 57 57 45.3594 57 31C57 16.6406 45.3594 5 31 5C16.6406 5 5 16.6406 5 31C5 45.3594 16.6406 57 31 57Z" stroke="#C3C2C2" stroke-width="2" stroke-linecap="round" stroke-linejoin="round"/>
<path d="M31 13V31L43 37" stroke="#167EF1" stroke-width="2" stroke-linecap="round" stroke-linejoin="round"/>
<rect x="30" y="52" width="2" height="2" fill="#C4C4C4"/>
<rect x="52" y="30" width="2" height="2" fill="#C4C4C4"/>
<rect x="30" y="8" width="2" height="2" fill="#C4C4C4"/>
<rect x="8" y="30" width="2" height="2" fill="#C4C4C4"/>
</svg>
