<svg width="110" height="117" viewBox="0 0 110 117" fill="none" xmlns="http://www.w3.org/2000/svg">
<path opacity="0.6" fill-rule="evenodd" clip-rule="evenodd" d="M55.4482 0.00347217C43.8849 0.212078 35.9376 10.9034 26.6134 17.7567C17.3454 24.5687 4.89682 28.9515 1.22012 39.8611C-2.46545 50.7971 2.89793 62.6054 8.0131 72.9481C12.5424 82.1062 20.9122 87.8593 28.3947 94.8075C37.1564 102.943 43.5043 117.29 55.4482 116.996C67.4366 116.7 72.1896 101.004 81.5507 93.4965C90.2489 86.5203 103.814 84.9381 108.208 74.6811C112.671 64.2616 107.897 52.3356 103.692 41.8089C99.7262 31.8823 93.12 23.6977 85.0476 16.7025C76.2689 9.09534 67.0542 -0.205905 55.4482 0.00347217Z" fill="white"/>
<path d="M53.8595 94.9892C74.9165 94.9892 91.9866 92.32 91.9866 89.0274C91.9866 85.7347 74.9165 83.0656 53.8595 83.0656C32.8025 83.0656 15.7324 85.7347 15.7324 89.0274C15.7324 92.32 32.8025 94.9892 53.8595 94.9892Z" fill="#F2F2F2"/>
<path d="M60.049 92.7536C81.106 92.7536 98.176 90.0844 98.176 86.7918C98.176 83.4992 81.106 80.83 60.049 80.83C38.9919 80.83 21.9219 83.4992 21.9219 86.7918C21.9219 90.0844 38.9919 92.7536 60.049 92.7536Z" stroke="#D0CECE" stroke-opacity="0.5" stroke-miterlimit="10"/>
</svg>
