<svg width="107" height="98" viewBox="0 0 107 98" fill="none" xmlns="http://www.w3.org/2000/svg">
<path opacity="0.6" fill-rule="evenodd" clip-rule="evenodd" d="M49.785 2.65838C58.4654 4.53589 64.7342 10.9824 72.4703 15.3446C81.6156 20.5014 94.1044 21.3308 99.1896 30.5165C104.468 40.0518 101.127 51.8231 98.5239 62.4068C95.7281 73.7742 93.3202 86.5806 83.7446 93.3136C74.2058 100.021 61.3783 97.9286 49.785 96.6771C39.3392 95.5495 28.2658 93.8718 20.7646 86.515C13.6841 79.5709 13.8407 68.6544 11.4085 59.0397C9.1743 50.2073 5.97543 41.7519 7.1561 32.7181C8.53799 22.1448 9.92674 9.8465 18.641 3.70164C27.343 -2.43457 39.3779 0.407393 49.785 2.65838Z" fill="#DEDEDE"/>
<path d="M35.6173 38.6134H35.7173C35.7173 38.3841 35.7222 38.1573 35.7321 37.933L35.7321 37.9327C35.8657 34.6473 36.962 31.4736 38.8847 28.8063C40.8074 26.139 43.4717 24.0958 46.5463 22.9306C49.6209 21.7655 52.9701 21.5298 56.1776 22.253C59.385 22.9762 62.3091 24.6263 64.5863 26.9981C66.8635 29.37 68.3933 32.3589 68.9855 35.5932C69.5776 38.8276 69.2061 42.1646 67.917 45.1895C66.6279 48.2143 64.4781 50.7935 61.735 52.6063C58.9919 54.4191 55.7765 55.3855 52.4886 55.3855C48.042 55.3808 43.7789 53.6123 40.6346 50.4679C37.4904 47.3235 35.7219 43.0601 35.7173 38.6133L35.6173 38.6134ZM35.6173 38.6134C35.6173 38.3827 35.6223 38.1544 35.6322 37.9286C35.7665 34.6236 36.8694 31.431 38.8036 28.7478C40.7377 26.0646 43.4179 24.0092 46.5109 22.8371C49.6038 21.665 52.973 21.428 56.1996 22.1555C59.4261 22.883 62.3677 24.5429 64.6584 26.9289C66.9492 29.3149 68.4881 32.3216 69.0838 35.5752C69.6795 38.8288 69.3058 42.1858 68.009 45.2287C66.7122 48.2716 64.5496 50.8661 61.7901 52.6898C59.0307 54.5134 55.7961 55.4856 52.4885 55.4855L35.6173 38.6134ZM52.4885 21.1451L52.4885 21.1451C47.9492 21.1469 43.5887 22.9149 40.3299 26.0751C37.0712 29.2353 35.1699 33.5395 35.0285 38.0768L35.0285 38.0771C35.0235 38.2543 35.0211 38.4339 35.0211 38.6134C35.0211 42.0683 36.0455 45.4456 37.9649 48.3183C39.8842 51.1909 42.6123 53.4299 45.804 54.752C48.9958 56.0741 52.5079 56.4201 55.8962 55.7461C59.2846 55.072 62.397 53.4083 64.8398 50.9654C67.2827 48.5224 68.9463 45.4098 69.6203 42.0213C70.2943 38.6328 69.9484 35.1205 68.6263 31.9286C67.3042 28.7367 65.0654 26.0085 62.1929 24.0891C59.3204 22.1696 55.9432 21.1451 52.4885 21.1451Z" fill="#878484" stroke="#878484" stroke-width="0.2"/>
<path d="M62.4851 48.6113C65.1365 45.9598 66.6261 42.3634 66.6261 38.6135C66.6261 34.9785 65.2261 31.4831 62.7169 28.8532C60.2077 26.2232 56.782 24.6607 53.1512 24.4902C49.5203 24.3197 45.9633 25.5541 43.2186 27.9373C40.4741 30.3204 38.7527 33.669 38.4119 37.2879L62.4851 48.6113ZM62.4851 48.6113C59.8337 51.2629 56.2376 52.7525 52.4879 52.7525M62.4851 48.6113L52.4879 52.7525M52.4879 52.7525C48.7382 52.7525 45.1421 51.2629 42.4906 48.6113M52.4879 52.7525L42.4906 48.6113M42.4906 48.6113C39.8392 45.9598 38.3496 42.3634 38.3496 38.6135M42.4906 48.6113L38.3496 38.6135M38.3496 38.6135C38.3496 38.1657 38.3711 37.7247 38.4119 37.288L38.3496 38.6135Z" fill="white" stroke="#878484"/>
<g opacity="0.5">
<path d="M1 89.4173L18.1622 72.2505" stroke="#878484" stroke-linecap="round" stroke-linejoin="round"/>
<path d="M27.8389 81.3777L46.2611 62.9583" stroke="#878484" stroke-linecap="round" stroke-linejoin="round"/>
<path d="M55.8516 71.8392L59.8561 67.8345" stroke="#878484" stroke-linecap="round" stroke-linejoin="round"/>
<path d="M75.5078 83.2511L99.4377 59.3201" stroke="#878484" stroke-linecap="round" stroke-linejoin="round"/>
<path d="M18.2188 71.9661L27.4131 81.1646" stroke="#878484" stroke-linecap="round" stroke-linejoin="round"/>
<path d="M46.2861 63.1377L55.4019 72.2539" stroke="#878484" stroke-linecap="round" stroke-linejoin="round"/>
<path d="M60.0918 67.6248L75.5228 83.0566" stroke="#878484" stroke-linecap="round" stroke-linejoin="round"/>
<path d="M100.048 58.7292L106 64.6783" stroke="#878484" stroke-linecap="round" stroke-linejoin="round"/>
<path d="M17.2383 72.269C17.2383 72.0656 17.2986 71.8668 17.4116 71.6977C17.5246 71.5286 17.6851 71.3968 17.873 71.319C18.0609 71.2412 18.2677 71.2208 18.4671 71.2605C18.6666 71.3002 18.8498 71.3981 18.9936 71.5419C19.1374 71.6857 19.2353 71.8689 19.275 72.0684C19.3147 72.2679 19.2943 72.4746 19.2165 72.6625C19.1387 72.8504 19.0069 73.011 18.8378 73.124C18.6687 73.237 18.4699 73.2973 18.2665 73.2973C17.9938 73.2973 17.7323 73.189 17.5395 72.9961C17.3466 72.8033 17.2383 72.5417 17.2383 72.269Z" fill="#878484"/>
<path d="M26.6465 81.0227C26.6465 80.8193 26.7068 80.6205 26.8198 80.4514C26.9328 80.2823 27.0934 80.1505 27.2812 80.0727C27.4691 79.9948 27.6759 79.9745 27.8753 80.0141C28.0748 80.0538 28.258 80.1518 28.4018 80.2956C28.5456 80.4394 28.6435 80.6226 28.6832 80.8221C28.7229 81.0215 28.7025 81.2283 28.6247 81.4162C28.5469 81.6041 28.4151 81.7647 28.246 81.8777C28.0769 81.9907 27.8781 82.051 27.6747 82.051C27.402 82.051 27.1405 81.9426 26.9476 81.7498C26.7548 81.5569 26.6465 81.2954 26.6465 81.0227Z" fill="#878484"/>
<path d="M45.1553 63.4519C45.1553 63.2483 45.2157 63.0494 45.3288 62.8802C45.442 62.711 45.6028 62.5792 45.7909 62.5015C45.979 62.4238 46.1859 62.4036 46.3855 62.4436C46.585 62.4836 46.7682 62.5819 46.9119 62.7261C47.0555 62.8703 47.1532 63.0538 47.1924 63.2535C47.2317 63.4533 47.2108 63.6601 47.1324 63.848C47.054 64.0358 46.9216 64.1961 46.752 64.3087C46.5824 64.4212 46.3833 64.4809 46.1798 64.4802C45.9077 64.4792 45.6471 64.3704 45.4551 64.1776C45.2631 63.9849 45.1553 63.7239 45.1553 63.4519Z" fill="#878484"/>
<path d="M54.584 72.0185C54.584 71.8151 54.6443 71.6163 54.7573 71.4472C54.8703 71.2781 55.0309 71.1463 55.2187 71.0685C55.4066 70.9907 55.6134 70.9703 55.8128 71.01C56.0123 71.0497 56.1955 71.1476 56.3393 71.2914C56.4831 71.4352 56.581 71.6184 56.6207 71.8179C56.6604 72.0174 56.64 72.2241 56.5622 72.412C56.4844 72.5999 56.3526 72.7605 56.1835 72.8735C56.0144 72.9865 55.8156 73.0468 55.6122 73.0468C55.3395 73.0468 55.078 72.9385 54.8852 72.7456C54.6923 72.5528 54.584 72.2912 54.584 72.0185Z" fill="#878484"/>
<path d="M59.041 67.6958C59.041 67.4924 59.1013 67.2936 59.2143 67.1245C59.3273 66.9554 59.4879 66.8236 59.6757 66.7458C59.8636 66.6679 60.0704 66.6476 60.2699 66.6872C60.4693 66.7269 60.6525 66.8249 60.7963 66.9687C60.9401 67.1125 61.038 67.2957 61.0777 67.4952C61.1174 67.6946 61.097 67.9014 61.0192 68.0893C60.9414 68.2772 60.8096 68.4378 60.6405 68.5508C60.4714 68.6637 60.2726 68.7241 60.0693 68.7241C59.7965 68.7241 59.535 68.6157 59.3422 68.4229C59.1493 68.23 59.041 67.9685 59.041 67.6958Z" fill="#878484"/>
<path d="M74.5674 82.8098C74.5674 82.6064 74.6277 82.4076 74.7407 82.2385C74.8537 82.0694 75.0142 81.9376 75.2021 81.8598C75.39 81.7819 75.5968 81.7616 75.7962 81.8013C75.9957 81.8409 76.1789 81.9389 76.3227 82.0827C76.4665 82.2265 76.5644 82.4097 76.6041 82.6092C76.6438 82.8086 76.6234 83.0154 76.5456 83.2033C76.4678 83.3912 76.336 83.5518 76.1669 83.6648C75.9978 83.7778 75.799 83.8381 75.5956 83.8381C75.3229 83.8381 75.0614 83.7297 74.8686 83.5369C74.6757 83.3441 74.5674 83.0825 74.5674 82.8098Z" fill="#878484"/>
<path d="M99.0039 59.0246C99.0039 58.8212 99.0642 58.6224 99.1772 58.4533C99.2902 58.2842 99.4508 58.1524 99.6387 58.0746C99.8265 57.9968 100.033 57.9764 100.233 58.0161C100.432 58.0558 100.615 58.1537 100.759 58.2975C100.903 58.4413 101.001 58.6245 101.041 58.824C101.08 59.0235 101.06 59.2302 100.982 59.4181C100.904 59.606 100.772 59.7666 100.603 59.8796C100.434 59.9926 100.236 60.0529 100.032 60.0529C99.7594 60.0529 99.4979 59.9446 99.3051 59.7517C99.1122 59.5589 99.0039 59.2973 99.0039 59.0246Z" fill="#878484"/>
</g>
</svg>
