<svg width="128" height="117" viewBox="0 0 128 117" fill="none" xmlns="http://www.w3.org/2000/svg">
<path opacity="0.6" fill-rule="evenodd" clip-rule="evenodd" d="M60.8013 0.923392C71.8555 -0.37654 82.8825 -0.901763 93.2542 3.48473C106.284 8.99519 123.444 14.0648 126.916 28.8852C130.423 43.8527 114.496 55.3801 108.713 69.4742C103.816 81.4102 105.196 97.1012 95.6799 105.012C86.1262 112.954 72.724 107.885 60.8013 109.304C46.847 110.963 31.7963 122.265 19.9492 114.019C8.16584 105.817 9.9751 86.5419 6.73042 71.6664C3.79172 58.1938 -3.45222 43.9959 1.94289 31.4682C7.26271 19.1154 21.7767 16.4124 33.044 10.5652C42.036 5.89874 50.9082 2.08677 60.8013 0.923392Z" fill="white"/>
<path opacity="0.5" d="M70.5684 32.7953C74.2918 32.7953 77.698 29.2566 81.3403 24.9572" stroke="#D0CECE" stroke-linecap="round" stroke-linejoin="round"/>
<path opacity="0.5" d="M87.8458 16.8142H82.5981V22.6687H87.8458V16.8142Z" fill="#D0CECE"/>
</svg>
