<svg width="131" height="117" viewBox="0 0 131 117" fill="none" xmlns="http://www.w3.org/2000/svg">
<path opacity="0.6" fill-rule="evenodd" clip-rule="evenodd" d="M60.8013 0.923392C71.8555 -0.37654 82.8825 -0.901763 93.2542 3.48473C106.284 8.99519 123.444 14.0648 126.916 28.8852C130.423 43.8527 114.496 55.3801 108.713 69.4742C103.816 81.4102 105.196 97.1012 95.6799 105.012C86.1262 112.954 72.724 107.885 60.8013 109.304C46.847 110.963 31.7963 122.265 19.9492 114.019C8.16584 105.817 9.9751 86.5419 6.73042 71.6664C3.79172 58.1938 -3.45222 43.9959 1.94289 31.4682C7.26271 19.1154 21.7767 16.4124 33.044 10.5652C42.036 5.89874 50.9082 2.08677 60.8013 0.923392Z" fill="white"/>
<path opacity="0.5" d="M116.513 47.6298C117.771 50.3329 120.576 51.3277 122.749 51.3277C127.997 51.3277 130 45.6875 130 43.7805" stroke="#D0CECE" stroke-linecap="round" stroke-linejoin="round"/>
<path opacity="0.5" d="M116.181 19.1477C117.341 21.6071 117.915 24.208 117.915 26.4806C117.915 31.8632 117.11 35.5533 116.505 38.7813" stroke="#D0CECE" stroke-linecap="round" stroke-linejoin="round"/>
<path opacity="0.5" d="M89.6982 15.6091C93.2507 12.3004 97.2437 9.84106 101.996 9.84106C105.901 9.84106 109.071 11.1386 111.524 13.1182" stroke="#D0CECE" stroke-linecap="round" stroke-linejoin="round"/>
<path opacity="0.5" d="M70.5684 32.7951C74.2918 32.7951 77.698 29.2565 81.3403 24.957" stroke="#D0CECE" stroke-linecap="round" stroke-linejoin="round"/>
<path opacity="0.5" d="M87.8458 16.8141H82.5981V22.6686H87.8458V16.8141Z" fill="#D0CECE"/>
<path opacity="0.5" d="M113.878 18.261C115.151 18.261 116.182 17.1097 116.182 15.6896C116.182 14.2694 115.151 13.1182 113.878 13.1182C112.605 13.1182 111.573 14.2694 111.573 15.6896C111.573 17.1097 112.605 18.261 113.878 18.261Z" fill="#D0CECE"/>
<path opacity="0.5" d="M120.272 43.3324L115.137 39.6011L114.808 46.4287L120.272 43.3324Z" fill="#D0CECE"/>
</svg>
