<svg width="121" height="117" viewBox="0 0 121 117" fill="none" xmlns="http://www.w3.org/2000/svg">
<path opacity="0.6" fill-rule="evenodd" clip-rule="evenodd" d="M67.5454 0.264788C80.9948 2.21824 85.5587 16.5206 94.8712 24.9879C101.894 31.3734 110.994 35.8184 115.352 43.7327C120.148 52.4427 121.978 61.9972 120.502 71.5303C118.773 82.6977 115.693 94.2564 106.299 102.209C96.0909 110.849 81.4906 119.451 67.5454 116.356C53.3996 113.216 53.0003 95.039 41.1639 87.7509C29.3081 80.4509 6.23648 86.8856 0.885406 75.3108C-4.34794 63.9906 15.0778 55.1564 20.9713 44.0727C25.9047 34.7945 24.4292 23.4801 32.463 15.9234C41.5376 7.38786 54.1964 -1.6741 67.5454 0.264788Z" fill="white"/>
</svg>
