<svg width="122" height="117" viewBox="0 0 122 117" fill="none" xmlns="http://www.w3.org/2000/svg">
<path opacity="0.6" fill-rule="evenodd" clip-rule="evenodd" d="M56.7547 3.17379C66.6752 5.41532 73.8396 13.1117 82.6809 18.3196C93.1328 24.4763 107.406 25.4665 113.217 36.4331C119.25 47.8172 115.432 61.8708 112.457 74.5065C109.261 88.0778 106.51 103.367 95.5659 111.406C84.6644 119.413 70.0042 116.915 56.7547 115.421C44.8165 114.075 32.1612 112.072 23.5882 103.289C15.4962 94.9984 15.6752 81.9654 12.8956 70.4865C10.3421 59.9417 6.68626 49.8469 8.03561 39.0617C9.61493 26.4383 11.2021 11.7556 21.1613 4.41932C31.1065 -2.9066 44.8608 0.48638 56.7547 3.17379Z" fill="white"/>
<path d="M40.5617 46.1H40.6617C40.6617 45.8259 40.6674 45.5547 40.6787 45.2866L40.6787 45.2863C40.8315 41.3592 42.0859 37.566 44.2855 34.3784C46.485 31.1909 49.5325 28.7497 53.0484 27.3579C56.5643 25.966 60.394 25.6846 64.0615 26.5485C67.7291 27.4123 71.0734 29.3835 73.6782 32.2177C76.283 35.0519 78.0334 38.624 78.7109 42.49C79.3885 46.356 78.9633 50.3448 77.4884 53.9601C76.0136 57.5754 73.5542 60.6573 70.4169 62.8232C67.2797 64.989 63.6028 66.1433 59.8433 66.1433C54.7591 66.1377 49.8837 64.0253 46.2873 60.2681C42.6907 56.5108 40.667 51.4154 40.6617 46.0999L40.5617 46.1ZM40.5617 46.1C40.5617 45.8245 40.5674 45.552 40.5788 45.2824C40.7323 41.3366 41.9927 37.5251 44.2032 34.3216C46.4137 31.1182 49.4768 28.6642 53.0116 27.2649C56.5464 25.8656 60.3969 25.5826 64.0845 26.4511C67.772 27.3197 71.1338 29.3014 73.7518 32.15C76.3698 34.9986 78.1286 38.5883 78.8094 42.4727C79.4903 46.3572 79.0631 50.365 77.581 53.9979C76.099 57.6307 73.6275 60.7283 70.4738 62.9055C67.3201 65.0827 63.6233 66.2434 59.8432 66.2433L40.5617 46.1ZM59.8432 25.2643L59.8432 25.2643C54.6577 25.2664 49.6774 27.3763 45.956 31.1462C42.2349 34.9159 40.0645 40.0495 39.9031 45.4601L39.9031 45.4604C39.8974 45.6716 39.8946 45.8858 39.8946 46.1C39.8946 50.2199 41.064 54.2477 43.2555 57.674C45.4469 61.1003 48.5622 63.7715 52.2078 65.3491C55.8535 66.9266 59.8653 67.3395 63.7359 66.5352C67.6064 65.7309 71.161 63.7457 73.9506 60.8315C76.7401 57.9173 78.6393 54.2049 79.4087 50.164C80.1781 46.1231 79.7833 41.9346 78.2739 38.1279C76.7646 34.3212 74.2084 31.0668 70.9278 28.7769C67.6472 26.4868 63.7897 25.2643 59.8432 25.2643Z" fill="#fff" stroke="#C3C2C2" stroke-width="0.2"/>
<path d="M76.0729 46.1C76.0729 50.6095 74.3579 54.9302 71.3117 58.1125C68.2662 61.2941 64.1404 63.0772 59.8433 63.0772C55.5462 63.0772 51.4204 61.2941 48.3749 58.1125C45.3287 54.9302 43.6138 50.6095 43.6138 46.1C43.6138 45.5614 43.6385 45.0312 43.6854 44.5064C44.0777 40.1546 46.0589 36.1326 49.2111 33.2734C52.3627 30.4147 56.4427 28.9373 60.6037 29.1415C64.7648 29.3456 68.6955 31.2163 71.578 34.3723C74.4611 37.529 76.0728 41.7286 76.0729 46.1Z" fill="white" stroke="#C3C2C2"/>
<g opacity="0.5">
<path d="M1 106.754L20.6141 86.2585" stroke="#D0CECE" stroke-linecap="round" stroke-linejoin="round"/>
<path d="M31.6733 97.1555L52.7275 75.1648" stroke="#D0CECE" stroke-linecap="round" stroke-linejoin="round"/>
<path d="M63.688 85.7675L68.2646 80.9863" stroke="#D0CECE" stroke-linecap="round" stroke-linejoin="round"/>
<path d="M86.1523 99.3921L113.501 70.8212" stroke="#D0CECE" stroke-linecap="round" stroke-linejoin="round"/>
<path d="M20.6777 85.9191L31.1856 96.901" stroke="#D0CECE" stroke-linecap="round" stroke-linejoin="round"/>
<path d="M52.7568 75.3792L63.1749 86.2629" stroke="#D0CECE" stroke-linecap="round" stroke-linejoin="round"/>
<path d="M68.5342 80.7362L86.1697 99.16" stroke="#D0CECE" stroke-linecap="round" stroke-linejoin="round"/>
<path d="M114.197 70.1157L121 77.2183" stroke="#D0CECE" stroke-linecap="round" stroke-linejoin="round"/>
<path d="M19.5586 86.2806C19.5586 86.0378 19.6275 85.8005 19.7567 85.5986C19.8858 85.3967 20.0693 85.2393 20.284 85.1464C20.4988 85.0535 20.735 85.0292 20.963 85.0766C21.1909 85.1239 21.4003 85.2409 21.5647 85.4126C21.729 85.5842 21.841 85.803 21.8863 86.0411C21.9316 86.2793 21.9084 86.5261 21.8194 86.7504C21.7305 86.9748 21.5799 87.1665 21.3866 87.3014C21.1934 87.4363 20.9661 87.5083 20.7337 87.5083C20.4221 87.5083 20.1232 87.379 19.9028 87.1487C19.6824 86.9185 19.5586 86.6062 19.5586 86.2806Z" fill="#D0CECE"/>
<path d="M30.3096 96.7316C30.3096 96.4888 30.3785 96.2514 30.5076 96.0495C30.6367 95.8476 30.8203 95.6903 31.035 95.5974C31.2497 95.5044 31.486 95.4801 31.714 95.5275C31.9419 95.5749 32.1513 95.6918 32.3156 95.8635C32.48 96.0352 32.5919 96.2539 32.6373 96.4921C32.6826 96.7302 32.6593 96.9771 32.5704 97.2014C32.4814 97.4257 32.3308 97.6174 32.1376 97.7523C31.9443 97.8872 31.7171 97.9592 31.4847 97.9592C31.173 97.9592 30.8741 97.8299 30.6537 97.5997C30.4334 97.3694 30.3096 97.0572 30.3096 96.7316Z" fill="#D0CECE"/>
<path d="M51.4629 75.754C51.4629 75.511 51.5319 75.2735 51.6612 75.0715C51.7906 74.8695 51.9743 74.7122 52.1893 74.6194C52.4043 74.5266 52.6408 74.5026 52.8688 74.5503C53.0969 74.598 53.3063 74.7154 53.4705 74.8875C53.6346 75.0597 53.7462 75.2788 53.7911 75.5172C53.836 75.7557 53.8121 76.0027 53.7225 76.2269C53.6329 76.4512 53.4816 76.6426 53.2878 76.7769C53.094 76.9113 52.8663 76.9826 52.6337 76.9817C52.3228 76.9805 52.025 76.8506 51.8056 76.6205C51.5861 76.3904 51.4629 76.0788 51.4629 75.754Z" fill="#D0CECE"/>
<path d="M62.2388 85.9817C62.2388 85.7389 62.3077 85.5015 62.4368 85.2996C62.566 85.0977 62.7495 84.9404 62.9642 84.8475C63.1789 84.7546 63.4152 84.7302 63.6432 84.7776C63.8711 84.825 64.0805 84.9419 64.2449 85.1136C64.4092 85.2853 64.5211 85.504 64.5665 85.7422C64.6118 85.9803 64.5885 86.2272 64.4996 86.4515C64.4107 86.6758 64.26 86.8675 64.0668 87.0024C63.8735 87.1373 63.6463 87.2093 63.4139 87.2093C63.1022 87.2093 62.8033 87.08 62.583 86.8498C62.3626 86.6195 62.2388 86.3073 62.2388 85.9817Z" fill="#D0CECE"/>
<path d="M67.3335 80.8209C67.3335 80.5781 67.4024 80.3407 67.5315 80.1389C67.6607 79.937 67.8442 79.7796 68.0589 79.6867C68.2736 79.5938 68.5099 79.5695 68.7379 79.6169C68.9658 79.6642 69.1752 79.7811 69.3396 79.9528C69.5039 80.1245 69.6158 80.3433 69.6612 80.5814C69.7065 80.8195 69.6832 81.0664 69.5943 81.2907C69.5054 81.515 69.3547 81.7068 69.1615 81.8417C68.9682 81.9766 68.7411 82.0486 68.5086 82.0486C68.197 82.0486 67.8981 81.9192 67.6777 81.689C67.4573 81.4588 67.3335 81.1465 67.3335 80.8209Z" fill="#D0CECE"/>
<path d="M85.0771 98.8653C85.0771 98.6225 85.1461 98.3852 85.2752 98.1833C85.4043 97.9814 85.5879 97.8241 85.8026 97.7311C86.0173 97.6382 86.2536 97.6139 86.4815 97.6613C86.7095 97.7087 86.9189 97.8256 87.0832 97.9973C87.2476 98.169 87.3595 98.3877 87.4048 98.6258C87.4502 98.864 87.4269 99.1108 87.338 99.3351C87.249 99.5595 87.0984 99.7512 86.9052 99.8861C86.7119 100.021 86.4847 100.093 86.2523 100.093C85.9406 100.093 85.6417 99.9637 85.4213 99.7334C85.201 99.5032 85.0771 99.1909 85.0771 98.8653Z" fill="#D0CECE"/>
<path d="M113.005 70.4685C113.005 70.2257 113.074 69.9883 113.203 69.7864C113.332 69.5846 113.516 69.4272 113.73 69.3343C113.945 69.2414 114.181 69.2171 114.409 69.2644C114.637 69.3118 114.847 69.4287 115.011 69.6004C115.175 69.7721 115.287 69.9908 115.333 70.229C115.378 70.4671 115.355 70.714 115.266 70.9383C115.177 71.1626 115.026 71.3544 114.833 71.4893C114.64 71.6242 114.412 71.6961 114.18 71.6961C113.868 71.6961 113.569 71.5668 113.349 71.3366C113.129 71.1063 113.005 70.7941 113.005 70.4685Z" fill="#D0CECE"/>
</g>
</svg>
