<svg width="104" height="118" viewBox="0 0 104 118" fill="none" xmlns="http://www.w3.org/2000/svg">
<path opacity="0.6" fill-rule="evenodd" clip-rule="evenodd" d="M57.5489 0.26571C69.0078 2.22597 72.8963 16.5781 80.8305 25.0749C86.814 31.4827 94.5668 35.9432 98.2801 43.885C102.367 52.6253 103.925 62.2131 102.668 71.7794C101.195 82.9856 98.5711 94.5845 90.5667 102.564C81.8697 111.235 69.4302 119.867 57.5489 116.761C45.4966 113.61 45.1564 95.3699 35.0718 88.0564C24.9706 80.731 5.3135 87.1881 0.754368 75.573C-3.70446 64.2134 12.8463 55.3485 17.8676 44.2261C22.0709 34.9156 20.8138 23.5618 27.6586 15.9789C35.3901 7.41359 46.1755 -1.67993 57.5489 0.26571Z" fill="white"/>
</svg>
