<svg width="105" height="98" viewBox="0 0 105 98" fill="none" xmlns="http://www.w3.org/2000/svg">
<path opacity="0.6" fill-rule="evenodd" clip-rule="evenodd" d="M58.6138 0.221788C70.2847 1.85802 74.2452 13.8378 82.3263 20.9301C88.4204 26.2786 96.3167 30.0018 100.099 36.6308C104.261 43.9264 105.849 51.9293 104.568 59.9143C103.067 69.2681 100.395 78.9498 92.2426 85.6106C83.3847 92.8478 70.715 100.053 58.6138 97.4602C46.3385 94.8302 45.992 79.6053 35.7208 73.5008C25.4327 67.3862 5.41182 72.776 0.768327 63.0808C-3.77301 53.599 13.084 46.1994 18.1982 36.9156C22.4793 29.1441 21.1989 19.6671 28.1704 13.3376C36.045 6.18812 47.0299 -1.40224 58.6138 0.221788Z" fill="#DEDEDE"/>
</svg>
