<svg width="105" height="98" viewBox="0 0 105 98" fill="none" xmlns="http://www.w3.org/2000/svg">
<path opacity="0.6" fill-rule="evenodd" clip-rule="evenodd" d="M50.1051 0.773439C59.2146 -0.315392 68.3017 -0.755323 76.8488 2.91883C87.586 7.53444 101.728 11.7808 104.589 24.1945C107.478 36.7313 94.3541 46.3868 89.5884 58.192C85.5524 68.1897 86.6897 81.3326 78.8478 87.9586C70.9748 94.6108 59.9303 90.3656 50.1051 91.5534C38.6057 92.9436 26.2027 102.41 16.4397 95.5031C6.72929 88.633 8.22027 72.4881 5.5464 60.0283C3.12468 48.7435 -2.8449 36.8513 1.6011 26.358C5.98505 16.0112 17.9457 13.7472 27.2309 8.84947C34.641 4.94083 41.9524 1.74789 50.1051 0.773439Z" fill="#DEDEDE"/>
<path opacity="0.5" d="M58.1553 27.4695C61.2236 27.4695 64.0306 24.5055 67.0322 20.9043" stroke="#878484" stroke-linecap="round" stroke-linejoin="round"/>
<path opacity="0.5" d="M72.3938 14.0837H68.0693V18.9875H72.3938V14.0837Z" fill="#878484"/>
</svg>
