<svg width="29" height="30" viewBox="0 0 29 30" fill="none" xmlns="http://www.w3.org/2000/svg">
<path d="M14.5 29.5405C22.51 29.5405 29 23.0506 29 15.0405C29 7.03049 22.51 0.540527 14.5 0.540527C6.48996 0.540527 0 7.03049 0 15.0405C0 23.0506 6.48996 29.5405 14.5 29.5405ZM6.63496 14.7264L20.6154 9.33599C21.2643 9.10157 21.831 9.49428 21.6207 10.4754L21.6219 10.4742L19.2415 21.6888C19.0651 22.4839 18.5926 22.6772 17.9317 22.3026L14.3067 19.631L12.5582 21.3154C12.3649 21.5087 12.2018 21.6719 11.8272 21.6719L12.0845 17.9828L18.8029 11.9134C19.0953 11.656 18.7376 11.511 18.3522 11.7672L10.0497 16.9944L6.47063 15.8779C5.69367 15.6314 5.67675 15.1009 6.63496 14.7264V14.7264Z" fill="#B6C5D4"/>
</svg>
