<svg width="29" height="29" viewBox="0 0 29 29" fill="none" xmlns="http://www.w3.org/2000/svg">
<path fill-rule="evenodd" clip-rule="evenodd" d="M29 14.5C29 22.51 22.51 29 14.5 29C6.48993 29 -2.76566e-05 22.51 -2.76566e-05 14.5C-2.76566e-05 6.48996 6.48993 0 14.5 0C22.51 0 29 6.48996 29 14.5ZM20.7745 10.8464C21.3819 10.7734 21.9573 10.6117 22.4962 10.3742C22.0943 10.977 21.5856 11.504 21.0011 11.9269C21.0065 12.0557 21.0102 12.1845 21.0102 12.3151C21.0102 16.2771 17.9944 20.8438 12.4797 20.8438C10.7864 20.8438 9.21088 20.3469 7.88382 19.4975C8.11854 19.5249 8.35692 19.5386 8.59895 19.5386C10.0027 19.5386 11.296 19.06 12.3226 18.2563C11.0101 18.2316 9.90319 17.3649 9.52142 16.1739C9.705 16.2086 9.89314 16.2269 10.0849 16.2269C10.358 16.2269 10.6229 16.1903 10.875 16.1228C9.50224 15.8469 8.47017 14.634 8.47017 13.1818V13.1453C8.87386 13.3691 9.33693 13.5042 9.8283 13.5198C9.02457 12.9818 8.49484 12.0657 8.49484 11.0245C8.49484 10.4738 8.64097 9.95868 8.90036 9.51754C10.379 11.3296 12.5884 12.5224 15.0799 12.6484C15.0297 12.4292 15.0023 12.1991 15.0023 11.9634C15.0023 10.3085 16.3449 8.96772 17.9999 8.96772C18.8639 8.96772 19.642 9.33122 20.1882 9.91393C20.8714 9.77967 21.5134 9.53033 22.0925 9.18783C21.8687 9.88744 21.3929 10.4747 20.7745 10.8464Z" fill="#B6C5D4"/>
</svg>
