<svg width="96" height="96" viewBox="0 0 96 96" fill="none" xmlns="http://www.w3.org/2000/svg">
<path fill-rule="evenodd" clip-rule="evenodd" d="M55.9989 50.4774L54.3921 49.5119L53.8739 49.2005L53.6381 49.7662L53.4487 50.2215C52.6947 52.0333 51.196 53.1588 49.5377 53.1588C47.8792 53.1588 46.3805 52.0333 45.627 50.2218L45.4373 49.7664L45.2018 49.2002L44.6836 49.5119L43.0768 50.4774L42.6759 50.7185L42.858 51.1562L43.0475 51.6116C44.2761 54.5651 46.7629 56.4002 49.5377 56.4002C52.3123 56.4002 54.7991 54.5651 56.0277 51.6113L56.2174 51.1562L56.4 50.7185L55.9989 50.4774ZM38.1162 49.5119L37.598 49.2005L37.3622 49.7662L37.1727 50.2215C36.4188 52.0333 34.9204 53.1588 33.2618 53.1588C31.6032 53.1588 30.1048 52.0333 29.3511 50.2218L29.1614 49.7664L28.9262 49.2002L28.4077 49.5119L26.8009 50.4774L26.4 50.7185L26.5821 51.1562L26.7716 51.6116C28.0002 54.5651 30.487 56.4002 33.2618 56.4002C36.0364 56.4002 38.5232 54.5651 39.7518 51.6113L39.9415 51.1562L40.1241 50.7185L39.723 50.4774L38.1162 49.5119Z" fill="#8C8C8C"/>
<path fill-rule="evenodd" clip-rule="evenodd" d="M42.0001 65.3999C40.6743 65.3999 39.6 66.4746 39.6 67.7999C39.6 69.1254 40.6743 70.1999 42.0001 70.1999C43.3254 70.1999 44.4 69.1254 44.4 67.7999C44.4 66.4746 43.3254 65.3999 42.0001 65.3999Z" fill="#8C8C8C"/>
<path fill-rule="evenodd" clip-rule="evenodd" d="M88.8 35.4602V37.1999H81.6V35.8371L85.7102 31.1396H81.7051V29.3999H88.6657V30.7627L84.5554 35.4602H88.8Z" fill="#8C8C8C"/>
<path fill-rule="evenodd" clip-rule="evenodd" d="M85.1986 19.7181L85.2 22.7949L73.201 22.8L73.2 20.3898L80.0463 12.0789L73.3717 12.0816L73.3706 9.00459L84.9708 9L84.9716 11.4099L78.1249 19.7211L85.1986 19.7181Z" fill="#8C8C8C"/>
<path fill-rule="evenodd" clip-rule="evenodd" d="M71.2289 76.4687C71.2289 79.2096 68.995 81.4393 66.2489 81.4393H17.751C15.005 81.4393 12.771 79.2096 12.771 76.4687V30.9311C12.771 28.1905 15.005 25.9605 17.751 25.9605H31.0859L38.4623 33.3227L38.8515 33.7115H66.2489C68.995 33.7115 71.2289 35.9413 71.2289 38.6822V76.4687ZM73.6926 31.2525C71.6886 29.2525 69.0449 28.1509 66.2489 28.1509H41.1176L33.7415 20.7884L33.352 20.3999H17.751C14.9547 20.3999 12.311 21.5012 10.3073 23.5014C8.30337 25.5014 7.19995 28.1401 7.19995 30.9311V76.4687C7.19995 79.2597 8.30337 81.8984 10.3073 83.8984C12.311 85.8986 14.9547 86.9999 17.751 86.9999H66.2489C69.0449 86.9999 71.6886 85.8986 73.6926 83.8984C75.6963 81.8984 76.8 79.2597 76.8 76.4687V38.6821C76.8 35.8911 75.6963 33.2527 73.6926 31.2525Z" fill="#F0F0F0"/>
</svg>
